<?xml version="1.0" encoding="utf-8"?>
<!-- Generator: Adobe Illustrator 20.1.0, SVG Export Plug-In . SVG Version: 6.00 Build 0)  -->
<svg version="1.1" id="Layer_1" xmlns="http://www.w3.org/2000/svg" xmlns:xlink="http://www.w3.org/1999/xlink" x="0px" y="0px"
	 viewBox="0 0 21.6 75.1" style="enable-background:new 0 0 21.6 75.1;" xml:space="preserve">
<style type="text/css">
	.st0{fill:#261FB2;}
</style>
<g>
	<g>
		<path class="st0" d="M0.4,16.2v-1.7h4.2l0.1-1.4h1.9l-0.1,1.4h4.2v1.7H6.3l-0.1,0.4c0.5,0.3,1.3,0.7,2.2,1.1
			c1.1,0.5,1.8,0.9,2.2,1.1l-1.1,1.6c-1.1-0.8-2.4-1.5-4-2.3c-0.8,1-2.3,1.9-4.6,2.8c-0.4-0.8-0.7-1.4-1-1.9
			c2.6-0.6,4.1-1.6,4.3-2.9H0.4z M0.4,2.8c0-0.2,0-0.5-0.1-0.9C0.3,1.6,0.2,1.3,0.2,1.1C4.1,1,7.5,0.8,10.3,0.5l0.4,1.8
			C6.6,2.6,3.2,2.8,0.4,2.8z M0.7,13.2l-0.4-1.7c0.5,0,1,0,1.4,0c0.7-0.4,1.4-0.9,2-1.4C3.7,10.1,3.5,10,3.4,9.8
			C2.8,9.3,2,8.6,1,7.9L2,7c0.3,0.2,0.5,0.4,0.7,0.5c0.9-0.7,1.7-1.4,2.4-2.1c-0.2-0.5-0.4-1.1-0.7-2l1.7-0.3C6.3,3.4,6.5,4,6.7,4.7
			C6.8,5,6.8,5.2,6.9,5.4L5.6,5.6l1.1,0.7C6.3,6.5,5.6,7,4.6,7.8C4.3,8,4.1,8.2,3.9,8.3l1.2,0.9c1.1-0.8,2.1-1.7,3.2-2.6l1.5,1.1
			C9.4,8.1,8.8,8.5,8,9c-1.5,1.1-2.7,1.9-3.5,2.5l3.4-0.1l-0.7-1.1l1.4-0.7c0.8,0.9,1.6,2,2.5,3.3l-1.6,0.8l-0.6-0.9
			C6.9,12.8,4.2,13,0.7,13.2z M1.8,6.2C1.5,5.4,1.1,4.6,0.6,3.8l1.7-0.4l1.1,2.3L1.8,6.2z M9.3,6.1L7.6,5.6c0.2-0.4,0.5-1,0.9-1.8
			C8.6,3.5,8.8,3.2,8.9,3l1.7,0.4c-0.1,0.4-0.4,0.9-0.7,1.5C9.6,5.4,9.4,5.8,9.3,6.1z M10.6,9.9C10.3,9,10.1,8.3,9.8,7.7
			C11.1,5.6,12.2,3,13,0l2.2,0.3c-0.4,1.2-0.7,2.3-1.1,3.4h2.4c0.4-1.2,0.7-2.4,1.1-3.6l1.9,0.3c-0.1,0.5-0.4,1.5-0.9,3.1
			c-0.1,0.1-0.1,0.2-0.1,0.3h2.8v1.9h-2.8v2.8H21v1.9h-2.5v2.8H21v1.9h-2.5v2.8h3v1.9h-7.8V21h-2V8.3C11.4,8.8,11,9.3,10.6,9.9z
			 M13.7,5.6v2.8h2.9V5.6H13.7z M13.7,10.3v2.8h2.9v-2.8H13.7z M13.7,15.1v2.8h2.9v-2.8H13.7z"/>
		<path class="st0" d="M20.1,32.3c-0.6-0.2-1.3-0.3-2-0.3v0.9h-6.3v1.6c4.1,0,7.3,0,9.6-0.1c-0.1,0.3-0.3,0.7-0.4,1.3
			c-0.1,0.2-0.1,0.4-0.2,0.5c-2.8,0-6.3,0-10.5,0c-2.6-0.1-4.5-0.6-5.6-1.6c-0.6,1.2-1.6,2.3-2.9,3.3c-0.2-0.2-0.4-0.4-0.8-0.8
			s-0.6-0.6-0.9-0.8c2.2-1.3,3.4-3.2,3.5-5.7l2.2,0.2c-0.1,0.2-0.1,0.5-0.2,0.9c-0.1,0.5-0.2,0.9-0.3,1.1c0.9,1.1,2.3,1.6,4.1,1.7
			v-4.6H0.8V28h20v1.1L20.1,32.3z M0.7,47.4l-0.3-1.8c0.9,0,2.4,0,4.4,0c2.2-0.1,3.8-0.1,4.8-0.1V43h-5v1.1H2.4v-6.2h7.3v-1.1H12
			v1.1h7.3v5.8h-1.2c1.5,1.3,2.6,2.3,3.3,3.2l-1.7,1.4c-0.4-0.4-0.7-0.9-1.1-1.3C14.1,47.1,8.1,47.2,0.7,47.4z M4.7,39.5v1.9h5v-1.9
			H4.7z M18.1,31.5v0.4l0.5-2.1h-6.8v1.7H18.1z M17,39.5h-5v1.9h5V39.5z M17.3,45.5l-1.4-1.3l1.1-0.6V43h-5v2.6L17.3,45.5z"/>
		<path class="st0" d="M0.8,66.7c-0.1-0.2-0.1-0.4-0.2-0.7C0.4,65,0.2,64.3,0,63.8c2-2.8,3.5-6,4.6-9.7l2.5,0.7
			c-0.5,1.6-1.1,3.1-1.9,4.7v15.6H2.8V63.8C2.2,64.8,1.5,65.8,0.8,66.7z M6.9,65.8v-2.3h6.8v-1.9l3.9-4H8.6v-2.3h11.9v2.5l-4.4,4.6
			v1.1h5.5v2.3h-5.5v5.8c0.1,2.2-0.9,3.2-3,3.2c-1.3,0-2.5,0-3.6,0c-0.1-0.7-0.3-1.4-0.4-2.2c0.9,0,1.9,0,3,0
			c1.2,0.1,1.7-0.4,1.6-1.5v-5.3H6.9z"/>
	</g>
</g>
</svg>
