<?xml version="1.0" encoding="utf-8"?>
<!-- Generator: Adobe Illustrator 20.1.0, SVG Export Plug-In . SVG Version: 6.00 Build 0)  -->
<svg version="1.1" id="Layer_1" xmlns="http://www.w3.org/2000/svg" xmlns:xlink="http://www.w3.org/1999/xlink" x="0px" y="0px"
	 viewBox="0 0 21.6 47.4" style="enable-background:new 0 0 21.6 47.4;" xml:space="preserve">
<style type="text/css">
	.st0{fill:#261FB2;}
</style>
<g>
	<path class="st0" d="M20.2,4.4c-0.6-0.2-1.3-0.3-2-0.3V5h-6.3v1.6c4.1,0,7.4,0,9.7-0.1c-0.1,0.3-0.3,0.7-0.4,1.3
		c-0.1,0.2-0.1,0.4-0.2,0.5c-2.8,0-6.3,0-10.6,0C7.6,8.3,5.8,7.8,4.7,6.8C4.1,8,3.1,9.1,1.8,10C1.6,9.9,1.3,9.6,1,9.2
		C0.6,8.9,0.3,8.6,0.1,8.4c2.2-1.3,3.4-3.2,3.6-5.8l2.2,0.2C5.8,3,5.7,3.3,5.7,3.7C5.6,4.3,5.5,4.6,5.4,4.8c0.9,1.1,2.3,1.6,4.1,1.7
		V1.9H0.7V0h20.2v1.2L20.2,4.4z M0.6,19.6l-0.3-1.8c0.9,0,2.4,0,4.4,0c2.2-0.1,3.8-0.1,4.9-0.1v-2.7H4.6v1.2H2.3V10h7.4V8.9H12V10
		h7.4v5.9h-1.2c1.5,1.3,2.6,2.4,3.4,3.2l-1.7,1.4c-0.4-0.4-0.7-0.9-1.1-1.3C14.1,19.3,8.1,19.4,0.6,19.6z M4.6,11.6v1.9h5.1v-1.9
		H4.6z M18.1,3.6V4l0.5-2.1h-6.8v1.7H18.1z M17.1,11.6H12v1.9h5.1V11.6z M17.3,17.7l-1.4-1.3l1.2-0.6v-0.6H12v2.7L17.3,17.7z"/>
	<path class="st0" d="M0.4,32.6v-2.1H2v-4h2.1v4h1.5v2.1l1.5-1.2c0.9,1.1,1.7,2,2.4,2.8l-1.4,1.4c-0.9-1.2-1.8-2.2-2.6-2.9h0.1H4.2
		v3.9l1.4-0.4c0,0.9,0,1.6,0,2.2c-0.2,0.1-0.4,0.1-0.8,0.3c-0.2,0.1-0.4,0.1-0.6,0.2V45c0.1,1.5-0.6,2.3-2,2.4H0.4
		c-0.1-0.5-0.2-1.2-0.4-2.1c0.4,0,0.8,0,1.2,0c0.6,0.1,0.9-0.2,0.8-0.8v-5.1l-1.8,0.5L0,37.5c0.7-0.1,1.4-0.3,2-0.4v-4.4H0.4z
		 M6,47.4l-1.2-1.9c0.7-0.7,1.5-1.5,2.5-2.6v-4.4H6v-2h3.3v6.4c1,1.5,2.7,2.2,5.2,2.1c3.3,0,5.7,0,7.1,0l-0.1,0.3
		c-0.2,0.8-0.4,1.4-0.4,1.8c-3.4,0-5.7,0-7-0.1c-2.7,0-4.6-0.7-5.7-2.1C7.8,45.3,7,46.2,6,47.4z M8.5,30.9C7.8,30.1,7,29.1,6,28
		l1.5-1.2c0.9,0.9,1.7,1.9,2.5,2.8L8.5,30.9z M11.1,29.8v-1.6h3.6v-2h2v2h3.6v1.6h-3.6v1.5h4.6v1.6h-3.5l1.9,0.4l-1.1,1.9H21v1.6
		h-4.3v1.4h3.6v1.5h-3.6v1.4h4.6v1.6h-4.6v2.2h-2v-2.2h-4.5v-1.6h4.5v-1.4H11v-1.5h3.6v-1.4h-4.2v-1.6h2.3c-0.1-0.1-0.2-0.3-0.4-0.6
		c-0.4-0.6-0.6-1-0.7-1.2l1.5-0.4h-3.1v-1.6h4.5v-1.5H11.1z M14.9,35l-0.2,0.1h1.8c0.1-0.2,0.3-0.5,0.5-0.9c0.4-0.7,0.6-1.1,0.7-1.3
		h-4.2C14.1,33.7,14.6,34.4,14.9,35z"/>
</g>
</svg>
