<?xml version="1.0" encoding="utf-8"?>
<!-- Generator: Adobe Illustrator 20.1.0, SVG Export Plug-In . SVG Version: 6.00 Build 0)  -->
<svg version="1.1" id="Layer_1" xmlns="http://www.w3.org/2000/svg" xmlns:xlink="http://www.w3.org/1999/xlink" x="0px" y="0px"
	 viewBox="0 0 21.6 74.6" style="enable-background:new 0 0 21.6 74.6;" xml:space="preserve">
<style type="text/css">
	.st0{fill:#261FB2;}
</style>
<g>
	<g>
		<path class="st0" d="M0,2.2V0h21.6v2.2h-7v3h6v15.3h-2.3v-1.4H3.5v1.4H1.2V5.2H7v-3H0z M15,14c-1.8,0-2.7-0.9-2.7-2.7V7.4H9.4
			c0.1,3.2-1.2,5.8-3.7,7.7c-0.5-0.6-1.1-1.2-1.8-1.7c2.2-1.3,3.2-3.3,3.2-6H3.5v9.7h14.7V14H15z M9.4,2.2v3h2.9v-3H9.4z M14.6,10.8
			c-0.1,0.7,0.4,1.1,1.3,1h2.4V7.4h-3.6V10.8z"/>
		<path class="st0" d="M2.2,33.5C2.1,33.4,2,33.2,1.8,33c-0.4-0.6-0.7-1.1-0.9-1.4c3.7-1.5,6.7-3.3,8.8-5.2l2.8,0.4
			c-0.7,0.7-1.4,1.3-2.2,1.8h9.5v2.2C15.3,34.5,9.1,37.2,1,39c-0.1-0.1-0.2-0.3-0.3-0.5c-0.1-0.3-0.3-0.8-0.6-1.5
			c3.3-0.7,6-1.4,8.3-2.3c-1.1-1.1-2.1-2-3-2.6l1.8-1.1c0.2,0.2,0.6,0.5,1.2,0.9c1,0.7,1.7,1.3,2.4,1.8l-0.3,0.2
			c2.2-0.9,4.1-2,5.9-3.3H7.7C6.5,31.4,4.6,32.4,2.2,33.5z M2.5,43.3c-0.6-1.1-1-1.8-1.3-2.1c4.6-1.4,8.3-3.4,10.9-5.8l2.7,0.5
			c-0.7,0.5-1.3,1.1-1.8,1.5h7.7v2.1C16.5,44.1,9.9,47,1.1,48.3c-0.2-0.7-0.5-1.4-0.8-2.1c4.2-0.6,7.4-1.3,9.5-2.2
			c-0.3-0.3-0.8-0.7-1.4-1.3c-0.6-0.5-1.1-1-1.4-1.3l2-1c0.4,0.3,0.9,0.7,1.5,1.3c0.7,0.5,1.1,1,1.4,1.3c2-1,3.9-2.2,5.6-3.6h-7.1
			C8.1,41,5.4,42.3,2.5,43.3z"/>
		<path class="st0" d="M0,63.6v-2.4h9.4v-6.7h2.8v6.7h9.4v2.4h-9.4v8.8h8v2.3H1.4v-2.3h8v-8.8H0z"/>
	</g>
</g>
</svg>
