<?xml version="1.0" encoding="utf-8"?>
<!-- Generator: Adobe Illustrator 20.1.0, SVG Export Plug-In . SVG Version: 6.00 Build 0)  -->
<svg version="1.1" id="Layer_1" xmlns="http://www.w3.org/2000/svg" xmlns:xlink="http://www.w3.org/1999/xlink" x="0px" y="0px"
	 viewBox="0 0 21.6 128.3" style="enable-background:new 0 0 21.6 128.3;" xml:space="preserve">
<style type="text/css">
	.st0{fill:#261FB2;}
</style>
<g>
	<g>
		<path class="st0" d="M19.7,20.5c-4.8-2-7.7-5-8.7-9.2c-0.9,4-3.9,7.1-9,9.4c-0.5-0.7-1.1-1.4-1.7-2.2C6.3,16,9.4,12.3,9.4,7.3
			c0.1-1.5,0.2-4,0.2-7.3h2.5c0,0.8,0,2-0.1,3.5c0,1.5,0,2.7-0.1,3.6c1,5.8,4.1,9.5,9.4,11.2c-0.1,0.1-0.2,0.2-0.3,0.3
			C20.7,19,20.3,19.6,19.7,20.5z M5.3,10.7c-0.2-0.2-0.4-0.6-0.7-1c-1.3-2.1-2.4-3.8-3.3-5l1.9-1.2c0.2,0.3,0.6,0.8,1,1.4
			c1.3,2,2.4,3.5,3.1,4.5L5.3,10.7z M15.7,10.9l-1.9-1.6c1.7-1.9,3.2-3.9,4.5-5.9l2.1,1.2C18.6,7.2,17.1,9.3,15.7,10.9z"/>
		<path class="st0" d="M1.6,47.8C1,47.2,0.5,46.7,0,46.2c0.9-1.8,1.4-4.5,1.3-8V27.7h5.4v17.6C7,45.1,7.4,44.7,8,44.1
			c0.4-0.5,0.7-0.8,0.9-1v-4.3H7.4v-2h3.3V43c0.9,1.5,2.4,2.2,4.5,2.1c1.1,0,2.6,0,4.4,0c0.9,0,1.5,0,2,0l-0.6,2c-2.5,0-4.5,0-6-0.1
			c-2.4,0-4.2-0.7-5.2-2.1c-0.4,0.3-1,1.1-1.8,2.4c0.1-0.1,0,0-0.3,0.3l-1-1.5c-0.2,0.7-0.8,1.1-1.7,1.1c-0.5,0.1-1.1,0.1-1.7,0.1
			c-0.1-0.5-0.3-1.2-0.4-2c0.1,0,0.3,0,0.6,0c0.3,0.1,0.5,0.1,0.7,0.1c0.6,0,0.9-0.3,0.9-0.8v-4.2H3.1C3.1,43,2.6,45.4,1.6,47.8z
			 M3.1,29.6v3.7H5v-3.7H3.1z M3.1,38.7H5v-3.6H3.1V38.7z M10,35.7c-0.9-0.8-2-1.6-3.1-2.4l1.3-1.5c0.8,0.6,1.9,1.4,3.1,2.4L10,35.7
			z M10.3,31.1C9.7,30.5,9,29.9,8,29.2c-0.3-0.3-0.6-0.5-0.8-0.6L8.6,27c0.7,0.5,1.7,1.2,2.9,2.3c-0.1-0.1-0.1,0,0.2,0.2L10.3,31.1z
			 M12.4,44.4l-0.6-1.7l0.7-0.3V27.9h7.6V37h-5.7v4.8c0.4-0.2,1-0.4,1.7-0.6c0.4-0.2,0.7-0.3,0.9-0.3c0,0.2,0,0.6,0.1,1
			c0,0.4,0,0.7,0.1,1C15.4,43.3,13.8,43.9,12.4,44.4z M14.4,29.7v2h3.8v-2H14.4z M14.4,35.3h3.8v-2h-3.8V35.3z M19.9,44
			c-0.4-0.5-1-1.1-1.7-1.8c-1.3-1.5-2.3-2.7-3.1-3.6l1.4-1l1.6,1.7c0.2-0.2,0.6-0.6,1-1c0.5-0.4,0.8-0.7,1-1l1.2,1.2
			c-0.7,0.6-1.4,1.2-2.2,1.9l2.2,2.4L19.9,44z"/>
		<path class="st0" d="M3.9,62.1c-1.2-1-2.4-2-3.8-3.1l1.3-1.5c1.2,0.9,2.5,1.8,3.9,2.9L3.9,62.1z M1.2,74.3l-1-2.3
			c0.6-0.6,1.4-1.3,2.4-2.3v-5H0.3v-2.2h4.5v7c1,1.6,2.6,2.4,4.8,2.4c3.7,0,7.6,0,11.9,0c-0.3,0.6-0.5,1.3-0.7,2C17,74,13,74,9,73.8
			C6.7,73.8,5,73,3.8,71.5C2.7,72.5,1.9,73.5,1.2,74.3z M4.3,57.9c-0.6-0.5-1.6-1.4-3.1-2.6c-0.3-0.2-0.5-0.3-0.6-0.4l1.3-1.4
			c1.2,0.9,2.5,1.8,3.9,2.9L4.3,57.9z M15.7,71c-0.1-0.6-0.3-1.1-0.4-1.7c0.6,0,1.1,0,1.7,0c0.8,0.1,1.2-0.4,1.1-1.3v-0.3h-3.5v3
			h-2.1v-3H9.1V71H6.9V59.2h4.8c-0.3-0.2-0.8-0.4-1.5-0.8c-0.9-0.5-1.5-0.8-1.8-1l1.2-1.1h-3v-1.7H20v1.9l-4.9,2.7h5.2v9.1
			c0.1,1.7-0.8,2.6-2.4,2.6C17.4,71,16.7,71,15.7,71z M9.1,60.9v1.8h3.4v-1.8H9.1z M9.1,64.3v1.8h3.4v-1.8H9.1z M16.9,56.4h-6.8
			c0.2,0.1,0.6,0.3,1.1,0.6c1,0.6,1.7,1,2.2,1.3L16.9,56.4z M18.1,60.9h-3.5v1.8h3.5V60.9z M14.6,64.3v1.8h3.5v-1.8H14.6z"/>
		<path class="st0" d="M2.4,96.2c-0.3-0.2-0.8-0.4-1.6-0.6c-0.3-0.1-0.6-0.2-0.7-0.3c1-3.1,1.8-5.9,2.4-8.3l2.4,0.7
			C4.1,90.7,3.2,93.5,2.4,96.2z M9.4,100.6c-2.4,0.1-3.6-1.1-3.6-3.4V85.1h2.5v11.5c-0.1,1.3,0.6,1.9,1.8,1.8h2.7
			c1.2,0.1,2-0.5,2.2-1.7c0-0.2,0-0.5,0.1-1c0.1-0.8,0.2-1.5,0.3-1.9c0.3,0.1,0.7,0.2,1.2,0.4c0.6,0.2,1,0.3,1.2,0.4
			c-0.2,1.3-0.4,2.4-0.6,3.5c-0.3,1.6-1.6,2.4-3.9,2.4H9.4z M12.8,87.2c-1-1.2-2.7-2.9-4.9-5.1l1.7-1.7c2,1.7,3.6,3.4,5,4.8
			L12.8,87.2z M19.2,94.8c-1-2.2-2.3-4.5-3.7-7.2l2.1-1.1c1,1.9,2.3,4.2,3.8,7.1L19.2,94.8z"/>
		<path class="st0" d="M7.3,122.7l-1.8-2.3v7.8h-2v-7.3c-0.7,1.7-1.6,3.3-2.6,4.7c-0.2-1-0.4-1.8-0.7-2.5c1.3-1.7,2.3-3.7,3.1-6H0.4
			v-1.9h3v-7.6h2v7.6h2.4v1.9H5.4v2.2l0.8-0.6c0.9,0.9,1.8,1.9,2.5,2.9L7.3,122.7z M1.4,113.8c-0.3-1.6-0.8-3.1-1.2-4.5l1.5-0.3
			c0.1,0.2,0.1,0.4,0.2,0.7c0.5,1.5,0.9,2.6,1,3.5L1.4,113.8z M7.3,113.8l-1.5-0.5c0.6-1.8,1.1-3.3,1.5-4.4l1.4,0.4
			C8.2,110.7,7.8,112.2,7.3,113.8z M20.6,117.8c-0.4-0.3-0.8-0.7-1.1-1c-0.1,3.1-0.1,5.7-0.3,8c0,2-1,3.1-3.1,3.1c-0.2,0-0.6,0-1,0
			c-0.6,0.1-1.1,0.1-1.4,0.1c-0.1-0.2-0.1-0.6-0.3-1.1c-0.1-0.5-0.2-0.8-0.3-1c0.7,0,1.4,0,2.1,0c1.2,0,1.7-0.5,1.7-1.5
			c0.1-2.1,0.2-3.9,0.2-5.5h-3.7c0.1,4.2-1.5,7.4-4.8,9.5c-0.5-0.6-1.1-1.2-1.7-1.7c2.9-1.5,4.3-4.1,4.3-7.8H9.8v-1.4L9.1,118
			c-0.1-0.2-0.3-0.6-0.6-1.2c-0.2-0.3-0.3-0.6-0.4-0.9c1.5-1.5,2.5-3.2,3.1-5.3l2,0.7c-0.6,2-1.6,3.8-2.8,5.3h9
			c-1.7-1.7-2.9-3.9-3.6-6.5h-4v-1.9h5.8c0.7,3,2,5.4,3.9,7.2c-0.1,0.1-0.1,0.3-0.3,0.6C21,116.8,20.8,117.4,20.6,117.8z"/>
	</g>
</g>
</svg>
