<?xml version="1.0" encoding="utf-8"?>
<!-- Generator: Adobe Illustrator 20.1.0, SVG Export Plug-In . SVG Version: 6.00 Build 0)  -->
<svg version="1.1" id="Layer_1" xmlns="http://www.w3.org/2000/svg" xmlns:xlink="http://www.w3.org/1999/xlink" x="0px" y="0px"
	 viewBox="0 0 864 432" style="enable-background:new 0 0 864 432;" xml:space="preserve">
<style type="text/css">
	.st0{fill:#EF4C26;}
</style>
<g>
	<path class="st0" d="M442.8,381.9c-2-1.5-2.6-4.1-2-6.4c0.6-2.2,0.4-4.5-0.1-6.9c-0.9-4.8-1.6-9.6-2.3-14.4c-0.2-1-0.1-2.2-0.5-3.1
		c-0.4-0.7-1.4-1.7-2.1-1.6c-4.8,0.2-9.5,0.5-14.2,1c-0.5,0.1-1.2,1.4-1.3,2.2c-0.7,6.4-1.2,12.8-1.8,19.3c-0.3,2.9-0.3,5.9-0.7,8.8
		c-0.1,0.5-1.3,1.4-2,1.3c-1.8-0.1-3.7-0.3-5.2-1.1c-1.2-0.6-2.5-2.1-2.6-3.4c-0.4-3.2,0-6.5,0.1-9.7c0-4.4,0.1-8.8,0.4-13.2
		c0.8-10.8,1.5-21.6,2.8-32.4c0.4-3.8,1.7-7.7,3.3-11.3c0.7-1.6,3.3-2.8,5.3-3.3c3.7-0.9,7.6-1.4,11.5-1.5c3.2-0.1,5.5,1.7,7.9,4.2
		c4.3,4.5,3.7,10.1,5.3,15.3c0.6,1.9,1.1,3.8,1.5,5.7c1.5,7.2,3.4,14.4,4.6,21.6c0.2,1.2-0.7,2.7-0.6,4c0.3,3.7,0.9,7.3,1.2,11
		c0.3,3.8,0.7,7.7,0.7,11.5c0,2.7-4,3.9-6.8,3.2C444.4,382.5,443.5,382.4,442.8,381.9C442.9,381.9,442.9,381.9,442.8,381.9z
		 M432,338.1c0.1,0.2,0.2,0.3,0.3,0.5c1-0.6,2.9-1.5,2.8-1.8c-1.4-5.1-3-10.2-4.8-15.1c-0.7-2.1-2.7-2.6-4.6-1.2
		c-0.8,0.5-1.6,1.4-1.8,2.3c-1,4.9-1.8,9.9-2.5,14.8c-0.1,0.3,0.8,1.2,1.2,1.2C425.7,338.6,428.9,338.3,432,338.1z"/>
	<path class="st0" d="M446.8,384.3c-0.7,0-1.4-0.1-2-0.2c-0.2,0-0.3-0.1-0.5-0.1c-0.8-0.2-1.6-0.3-2.3-0.9c0,0,0,0,0,0
		c-2.3-1.8-3.3-4.8-2.5-7.8c0.4-1.7,0.4-3.7-0.1-6.3c-0.7-3.4-1.2-7-1.7-10.4c-0.2-1.4-0.4-2.7-0.6-4c-0.1-0.4-0.1-0.8-0.1-1.2
		c0-0.6-0.1-1.2-0.3-1.5c-0.2-0.3-0.6-0.7-0.8-0.8c-4.6,0.2-9.1,0.5-13.6,1c-0.2,0.3-0.4,0.7-0.4,1c-0.6,6.2-1.2,12.5-1.7,18.6
		l-0.1,0.7c-0.1,1-0.2,2-0.2,3c-0.1,1.9-0.3,3.9-0.5,5.8c-0.2,1.4-2.2,2.6-3.5,2.5c-2-0.1-4-0.3-5.8-1.2c-1.5-0.8-3.1-2.6-3.3-4.4
		c-0.3-2.3-0.2-4.6-0.1-6.8c0-1,0.1-2.1,0.1-3.1c0-4.7,0.1-9,0.4-13.3l0.1-1c0.7-10.3,1.5-21,2.7-31.5c0.4-3.8,1.6-7.8,3.5-11.7
		c1.1-2.3,4.4-3.6,6.2-4c4-0.9,8-1.5,11.8-1.5c3.9-0.1,6.6,2.2,9,4.6c3.3,3.5,4,7.4,4.6,11.3c0.3,1.6,0.5,3.1,1,4.6
		c0.5,1.8,1.1,3.8,1.5,5.8c0.6,2.9,1.3,5.8,1.9,8.6c1,4.2,2,8.6,2.7,13c0.2,1-0.1,1.9-0.3,2.7c-0.2,0.5-0.3,1-0.3,1.4
		c0.1,2,0.4,4,0.6,6c0.2,1.7,0.4,3.3,0.6,5l0.1,0.6c0.3,3.6,0.7,7.3,0.7,11c0,1.3-0.6,2.5-1.8,3.4
		C450.4,383.8,448.6,384.3,446.8,384.3z M443.7,380.8L443.7,380.8c0.2,0.2,0.8,0.3,1.2,0.4c0.2,0,0.4,0.1,0.6,0.1
		c1.4,0.4,3.3,0.1,4.3-0.7c0.7-0.5,0.7-1,0.7-1.2c0-3.6-0.4-7.2-0.7-10.8l-0.1-0.6c-0.1-1.6-0.3-3.2-0.5-4.9c-0.2-2-0.5-4.1-0.7-6.1
		c-0.1-0.8,0.2-1.6,0.4-2.4c0.2-0.6,0.3-1.1,0.3-1.5c-0.7-4.3-1.7-8.7-2.7-12.9c-0.6-2.8-1.3-5.8-1.9-8.7c-0.4-1.9-0.9-3.8-1.5-5.6
		c-0.5-1.6-0.8-3.3-1-4.9c-0.6-3.6-1.2-6.9-3.9-9.8c-2.2-2.3-4.1-3.7-6.7-3.7c0,0-0.1,0-0.1,0c-3.6,0.1-7.4,0.6-11.2,1.5
		c-1.9,0.5-3.9,1.6-4.3,2.5c-1.7,3.6-2.8,7.4-3.2,10.9c-1.2,10.4-2,21.1-2.7,31.4l-0.1,1c-0.3,4.3-0.4,8.5-0.4,13.2
		c0,1.1-0.1,2.1-0.1,3.2c-0.1,2.2-0.2,4.3,0,6.4c0.1,0.7,1,1.8,1.9,2.3c1.2,0.6,2.9,0.8,4.6,0.9c0.1,0,0.3-0.2,0.5-0.3
		c0.2-1.8,0.4-3.6,0.5-5.4c0.1-1,0.1-2.1,0.2-3.1l0.1-0.7c0.5-6.1,1.1-12.4,1.7-18.6c0.1-0.8,0.9-3.3,2.6-3.5
		c4.7-0.5,9.5-0.8,14.3-1c1.5-0.1,2.9,1.4,3.4,2.4c0.4,0.8,0.5,1.7,0.5,2.5c0,0.3,0,0.6,0.1,0.9c0.2,1.4,0.4,2.7,0.6,4.1
		c0.5,3.4,1,6.9,1.7,10.3c0.4,2,0.7,4.7,0.1,7.5C441.7,377.8,442.3,379.7,443.7,380.8z M422.5,340.1c-0.9,0-1.6-0.6-1.9-1
		c-0.6-0.6-0.8-1.2-0.7-1.8c0.9-6,1.7-10.6,2.5-14.9c0.3-1.3,1.4-2.5,2.4-3.2c1.4-0.9,2.8-1.2,4.1-0.8c1.2,0.4,2.2,1.4,2.7,2.7
		c1.6,4.5,3.2,9.5,4.8,15.2c0.4,1.3-0.8,1.9-2.3,2.7c-0.4,0.2-0.7,0.4-1,0.6c-0.3,0.2-0.7,0.3-1.1,0.2c-0.3-0.1-0.5-0.2-0.7-0.4
		l-1.4,0.1C427.5,339.8,425,340,422.5,340.1C422.6,340.1,422.6,340.1,422.5,340.1z M422.8,337.7
		C422.8,337.7,422.8,337.7,422.8,337.7C422.8,337.7,422.8,337.7,422.8,337.7z M422.5,337.3C422.5,337.3,422.5,337.3,422.5,337.3
		C422.5,337.3,422.5,337.3,422.5,337.3z M427.8,321.1c-0.4,0-0.8,0.2-1.3,0.5c-0.7,0.4-1.1,1.1-1.2,1.4c-0.8,4.1-1.6,8.6-2.5,14.3
		c2.3-0.1,4.6-0.3,6.8-0.4l2.2-0.2c0.2,0,0.5,0,0.7,0.1c0,0,0.1,0,0.1-0.1c0.2-0.1,0.5-0.3,0.7-0.4c-1.5-5.3-3-10-4.5-14.2
		c-0.1-0.4-0.4-0.9-0.8-1C428,321.1,427.9,321.1,427.8,321.1z M433.7,337.2C433.7,337.2,433.7,337.2,433.7,337.2
		C433.7,337.2,433.7,337.2,433.7,337.2z"/>
</g>
<g>
	<path class="st0" d="M503.3,200.6c-0.6,2.2-2.2,4.1-4.2,5.1c-1.1,0.5-2.1,1-3.2,1.5c-0.5,0.2-1.7-0.6-2.2-1.2
		c-5-5.8-7.7-13-11.2-19.7c-2.7-5-5-10.2-7.2-14.8c0.2,1.2,0.3,3.1,0.7,5c0.5,2.4,1.3,4.8,1.6,7.3c0.4,3.5,0.9,7.1,0.6,10.6
		c-0.3,2.8-1.1,5.9-2.7,8.2c-1.6,2.5-4.2,4.6-7.5,4.9c-0.9,0.1-1.9-0.9-2.7-1.6c-2.3-2.2-4.8-4.4-5.1-7.8
		c-0.9-9.4-1.9-18.7-2.7-28.1c-0.6-6.8-0.9-13.5-1.2-20.3c-0.2-3.9-0.1-7.8,0-11.7c0.1-2.9,1.6-4.1,4.7-4.3c0.5,0,1-1,1.5-1
		c1.6,0.1,3.4,0,4.6,0.7c1.9,1.1,5.2,0.4,5.6,3.8c3.9-0.2,3.6,3.4,4.7,5.5c1.7,3,2.5,6.6,3.9,9.8c2.1,4.8,4.3,9.6,6.4,14.4
		c0.8,1.7,1.4,3.4,2.1,5.2c-0.1,0-0.3-0.1-0.4-0.1c0-4.9,0-9.7,0-14.6c0-5.7,0-11.3-0.3-17c-0.1-2.4-0.4-4.7,1.9-5.9
		c1.2-0.6,2.9-0.5,4.4-0.5c1.3,0,2.6,0.1,3.9,0.2c0.4,0,0.8,0.1,0.8,0.1c0.3,1.3,0.7,2.5,0.9,3.6c0.4,2.1,0.8,4.2,1.1,6.4
		c0.4,2.8,0.8,5.7,1,8.5c0.3,6.1,0.4,12.3,0.5,18.4c0.1,5.8,0.2,11.6,0.3,17.4c0.1,3.1,0.4,6.3,0.3,9.4L503.3,200.6z"/>
</g>
<g>
	<path class="st0" d="M488.3,87.5c0.2-3.6,0.3-7.3,0.6-10.9c0.5-7.1,1-14.1,1.5-21.2c0.2-2.8,0-5.6,0.4-8.3c0.4-2.8,2.1-3.2,4.6-1.8
		c1,0.6,2.1,1.1,3.2,1.5c3.3,1.2,3.1,4,3.3,6.7c0.5,10.6,1.2,21.2,1.3,31.8c0.1,7.8-0.7,15.6-1.1,23.4c0,0.8,0.1,1.7-0.1,2.5
		c-1,4.2-3.9,6.5-8.1,7.4c-1.2,0.3-2.7,1.2-3.4,0.7c-1.8-1-3.9-2.3-4.7-4.1c-1.7-3.7-2.7-7.8-3.9-11.8c-2.4-8.1-4.8-16.2-7.2-24.3
		c-0.3-0.8-0.8-1.6-1.6-2.4c-0.1,1.2-0.1,2.3-0.2,3.5c-0.1,5-0.2,10.1-0.2,15.1c0,5.4,0.2,10.7,0.1,16.1c-0.1,2.2-0.9,4.1-3.4,5
		c-1.3,0.4-2.4,1.4-3.8,2.4c-1.2,0.2-2.8,0.4-4.5,0.6c-0.3,0-0.7-0.1-1-0.3c-3.4-2.5-4.7-5.8-4.5-10c0.3-7.4,0.2-14.8,0.4-22.1
		c0.3-8.5,0.7-17,1.1-25.6c0.2-4.1,0.3-8.3,0.6-12.4c0.2-3.1,1.7-4.5,4.8-4.8c0.3,0,0.6-0.3,1-0.4c1.1-0.1,2.4-0.5,3.4-0.1
		c1.5,0.5,2.8,1.4,4.1,2.3c0.7,0.5,1.2,1.4,1.6,2.2c1.3,2.4,2.5,4.8,3.7,7.2c1.1,2.4,2.1,4.9,3,7.4c2.3,6.1,4.7,12.1,7,18.2
		c0.8,2.1,1.3,4.4,1.9,6.6C488,87.6,488.1,87.5,488.3,87.5z"/>
</g>
<g>
	<path class="st0" d="M374.1,77.3c0-1.7,0-3.9,0-6.2c0-5,0.1-10,0-15c0-1.8-0.6-3.5-0.7-5.3c-0.1-1.4-0.1-3,0.6-4.1
		c0.4-0.6,2.3-0.2,3.5-0.1c2.1,0.2,4.4,0.1,6.3,0.9c1.7,0.7,3.7,2.3,4.2,3.9c1.3,4.1,2.1,8.4,2.6,12.7c0.6,5,0.9,10,1.1,15
		c0.1,3-0.3,5.9-0.1,8.9c0.4,7.2,0.9,14.3,1.4,21.5c0.3,3.5-0.6,4.8-4,5.6c-1.9,0.4-3.9,0.9-5.8,1.3c-2.3,0.5-5.5-1.6-6-5.1
		c-0.8-6.5-1.8-12.9-2.7-19.2c-2.7,0.6-5.6,1.2-8.4,1.7c-1,0.2-2,0-3-0.1c-1.7-0.3-2.4,0.3-2.2,2.1c0.8,6,1.5,12.1,2.1,18.2
		c0.1,0.8-0.6,2.1-1.3,2.5c-1.4,0.9-3,1.4-4.5,2.1c-0.6,0.3-1.2,0.8-1.8,1.1c-2.2,1.1-3.7-0.4-5-1.6c-3.2-2.8-3.3-7-3.8-10.9
		c-0.8-6.3-1.4-12.6-1.7-18.9c-0.2-5.6,0.1-11.3,0.1-16.9c0-3.9-0.3-7.9-0.2-11.8c0-3,0.1-6.1,0.9-8.9c0.4-1.4,2.1-3.3,3.4-3.5
		c1.7-0.2,4.1,0.5,5.3,1.7c3.8,3.9,5.3,9,5.7,14.4c0.3,4.3,0.8,8.6,1,12.8c0.1,2,0.9,2.4,2.7,2.1C367.1,77.9,370.3,77.7,374.1,77.3z
		"/>
</g>
<g>
	<path class="st0" d="M402.3,83.9c0-5.2-0.4-10.5,0.1-15.7c0.6-7,1.4-14.1,6.2-19.9c2.3-2.8,7.7-3.5,10.8-2.3c2,0.8,4.3,1.2,6.1,2.4
		c4.8,3.1,9.8,6.1,12.9,11.2c2,3.3,3.8,6.8,5.1,10.4c2.8,7.3,1.9,14.9,0.6,22.3c-1.3,7.6-2.8,15.3-6.8,22.1
		c-0.8,1.3-2.2,2.5-3.6,3.1c-2.6,1.1-5.5,1.5-8.1,2.5c-4.7,1.8-8.5-0.3-12.5-2.4c-8.2-4.2-9.1-12-10.1-19.8c-0.6-4.6-0.7-9.3-1-13.9
		C402.1,83.9,402.2,83.9,402.3,83.9z M429.8,74.8c0.3-5.1-2.9-8.6-5.7-12.2c-0.5-0.6-1.9-1.2-2.5-1c-1,0.4-2.2,1.5-2.3,2.4
		c-0.6,5-1.1,10-1.1,14.9c0,6.1,0.5,12.1,1,18.2c0.2,2.8,1,5.6,1.8,8.4c0.3,0.9,1.4,1.9,2.3,2.1c0.7,0.1,2.1-0.8,2.3-1.6
		c0.8-2.3,1.3-4.6,1.6-7C428.1,90.9,428.9,82.8,429.8,74.8z"/>
</g>
<g>
	<path class="st0" d="M368.7,180.6c0,2,0,3.9,0,5.8c0.1,4.9,0.3,9.9,0.2,14.8c0,0.8-1.2,2-2.1,2.3c-2.3,0.7-5,1.9-7.1,1.2
		c-2.9-0.9-5.4-3.3-5.6-6.9c-0.3-5.5-0.6-11-1-16.4c-0.4-6.1-1.1-12.1-1.3-18.2c-0.2-7.7-0.2-15.4-0.1-23.1c0.1-4.3,2.2-5.9,6.3-4.9
		c2.3,0.6,5,1.4,6.4,3.1c1.3,1.6,1.5,4.4,1.7,6.7c0.4,4.4,0.4,8.8,0.6,13.2c0,0.5,0.4,1,0.8,2.1c3.1-5.8,5.8-11,8.7-16.3
		c1.7-3.1,3.3-6.4,6.7-8c1.7-0.8,4-2.1,5.9,0.3c0.6,0.8,1.8,1.5,2.7,1.5c2.3,0.1,2.2,1.7,2.1,3.1c-0.3,5.7-2.7,10.6-6.1,15
		c-2.3,2.9-4.6,5.7-7.1,8.5c-1.2,1.4-0.6,2.2,0.4,3.2c3.3,3.4,6.8,6.6,9.6,10.4c2.8,3.8,4.8,8.2,7.5,12.1c1.6,2.4,2.7,4.8,1.6,7.4
		c-0.8,2-2.1,4.2-3.9,5.3c-2.4,1.6-4.8-0.1-6.5-2c-3.8-4.1-7.3-8.6-11.2-12.6c-2.6-2.7-5.6-5-8.4-7.5
		C369.3,180.7,369,180.7,368.7,180.6z"/>
</g>
<g>
	<path class="st0" d="M445.7,166.1c-0.4,6.4-0.3,11.2-1.1,15.7c-1.1,5.8-1,12-4.7,17c-1,1.4-3.2,2.1-4.9,2.9c-2.6,1.2-5.3,2.3-8,3.1
		c-2.7,0.8-5.3,0.4-7.9-1c-5.8-3.3-9.2-8.1-10.1-14.5c-0.7-5.2-1.1-10.5-1-15.7c0.1-9,0.4-18,1.4-26.9c0.4-3.9,1.5-8.3,5.5-10.5
		c2.7-1.5,5.4-2.6,8.8-2.8c3.5-0.2,5.8,2.3,8.9,2.4c0.2,0,0.4,0.2,0.5,0.3c2.3,2.2,4.6,4.3,6.7,6.7c0.8,0.9,0.8,2.5,1.1,3.8
		c0.6,2.7,1.1,5.4,1.8,8.1C443.7,159.1,444.9,163.4,445.7,166.1z M429.1,193.1c0.9-2.3,2.2-4.2,2.4-6.2c0.5-5.4,1-10.9,0.7-16.3
		c-0.4-6.9-1.7-13.7-2.7-20.5c-0.1-0.6-0.9-1.2-1.4-1.8c-0.5,0.5-1.4,0.9-1.6,1.5c-1.4,5.6-2.9,11.1-3.8,16.7
		c-0.6,3.9,0.1,7.9,0,11.9C422.6,184.1,424.5,188.8,429.1,193.1z"/>
	<path class="st0" d="M424.1,205.8c-1.8,0-3.6-0.5-5.4-1.5c-6-3.4-9.4-8.4-10.4-14.9c-0.8-5.3-1.1-10.7-1-15.8
		c0.1-8.1,0.4-17.7,1.4-27c0.4-3.5,1.3-8.4,5.7-10.9c3.2-1.8,6-2.7,9-2.9c2-0.1,3.6,0.6,5.2,1.3c1.3,0.5,2.4,1.1,3.8,1.1
		c0.3,0,0.6,0.2,0.9,0.5c0.6,0.6,1.2,1.2,1.9,1.8c1.6,1.6,3.3,3.2,4.8,5c0.7,0.8,0.8,1.9,1,3c0.1,0.4,0.1,0.7,0.2,1
		c0.2,1,0.4,2.1,0.7,3.1c0.3,1.6,0.7,3.3,1.1,5c0.8,3.2,1.7,6.4,2.5,8.9c0.3,0.9,0.5,1.8,0.7,2.5l0,0.1l0,0.1
		c-0.1,2.1-0.2,4-0.3,5.8c-0.1,3.7-0.3,6.9-0.8,10c-0.3,1.4-0.5,2.8-0.7,4.2c-0.6,4.5-1.3,9.2-4.2,13.1c-0.9,1.3-2.6,2-4.2,2.6
		c-0.3,0.1-0.6,0.3-0.9,0.4c-2.3,1-5.1,2.2-8.1,3.1C426.1,205.6,425.1,205.8,424.1,205.8z M423.9,133.8c-0.1,0-0.2,0-0.4,0
		c-3,0.2-5.5,1-8.6,2.7c-3.9,2.3-4.9,6.6-5.2,10.2c-1,9.3-1.2,18.8-1.4,26.9c-0.1,5.1,0.3,10.3,1,15.6c0.9,6.2,4.2,10.9,9.9,14.2
		c2.5,1.4,5,1.8,7.5,1c2.9-0.9,5.7-2,8-3.1c0.3-0.1,0.6-0.3,1-0.4c1.5-0.6,3-1.3,3.8-2.3c2.7-3.7,3.4-8.2,4-12.6
		c0.2-1.4,0.4-2.8,0.7-4.2c0.6-3,0.7-6.2,0.8-9.8c0.1-1.8,0.1-3.7,0.3-5.8c-0.2-0.7-0.4-1.5-0.7-2.4c-0.7-2.6-1.7-5.7-2.5-8.9
		c-0.4-1.7-0.8-3.4-1.1-5c-0.2-1-0.4-2.1-0.7-3.1c-0.1-0.4-0.1-0.7-0.2-1.1c-0.1-0.9-0.3-1.9-0.8-2.5c-1.5-1.7-3.1-3.3-4.8-4.9
		c-0.6-0.6-1.3-1.2-1.9-1.8c-0.2-0.2-0.2-0.2-0.2-0.2c-1.5-0.1-2.8-0.6-4.1-1.2C426.9,134.4,425.5,133.8,423.9,133.8z M429.3,194
		l-0.5-0.5c-4.6-4.3-6.6-9.1-6.4-15c0-1.5,0-3-0.1-4.5c-0.1-2.5-0.2-5,0.1-7.5c0.7-4.5,1.8-8.9,2.9-13.2c0.3-1.2,0.6-2.4,0.9-3.6
		c0.1-0.6,0.7-1,1.2-1.4c0.2-0.1,0.4-0.3,0.5-0.4l0.4-0.4l0.3,0.4c0.1,0.2,0.3,0.3,0.5,0.5c0.4,0.4,0.9,0.9,1,1.5
		c0.2,1.6,0.5,3.2,0.7,4.8c0.8,5.2,1.6,10.5,1.9,15.8c0.3,5.2-0.1,10.3-0.7,16.3c-0.1,1.5-0.8,2.8-1.5,4.3c-0.3,0.7-0.7,1.4-1,2.1
		L429.3,194z M428.1,149c-0.1,0.1-0.1,0.1-0.2,0.2c-0.3,0.3-0.7,0.6-0.8,0.8c-0.3,1.2-0.6,2.4-0.9,3.6c-1.1,4.3-2.2,8.7-2.8,13.1
		c-0.3,2.4-0.2,4.9-0.1,7.3c0.1,1.5,0.1,3,0.1,4.6c-0.1,5.4,1.6,9.8,5.6,13.7c0.2-0.5,0.5-1,0.7-1.5c0.7-1.4,1.3-2.7,1.4-3.9
		c0.6-6,1-11.1,0.6-16.2c-0.3-5.2-1.1-10.5-1.9-15.7c-0.2-1.6-0.5-3.2-0.7-4.8c0-0.3-0.4-0.6-0.7-0.9
		C428.2,149.1,428.2,149.1,428.1,149z"/>
</g>
<g>
	<path class="st0" d="M535.6,198.3c1.5-0.5,2.4-1,3.3-1c3.1,0,4.3-1,4.9-4.2c0.6-3.4,1.2-6.8,1.8-10.1c0.1-0.6,0-1.6-0.2-1.7
		c-2.3-0.2-4.5-0.4-7.8-0.6c-2.3-1.7-3.8-5.1-2.7-7.8c0.3-0.8,1.2-1.8,2-2c3.8-1,7.7-2.3,11.6-2.5c2-0.1,5-0.7,6.3,2.3
		c0.3,0.7,1.4,1.1,1.9,1.8c2.8,3.5,2.4,7.7,2.5,11.7c0.1,4.1-0.5,8.3-0.8,12.5c0,0.5,0,1.2-0.2,1.6c-1.1,1.8-2.2,3.7-3.7,5.1
		c-1.2,1-3,1.5-4.6,1.9c-6,1.6-12.1,2.2-18.1,1.2c-2.6-0.4-5.1-2.3-7.4-3.9c-5.7-4.1-6.7-10.4-7-16.7c-0.4-9.7-0.5-19.4-0.5-29.1
		c0-3,0.4-6,1.1-8.9c1.5-5.9,4.6-10.9,9.8-14c2.2-1.3,5.3-1.3,8.1-1.7c2-0.3,4.1-0.3,6.1-0.3c0.4,0,0.7,0.3,1.1,0.4
		c0.7,0.1,1.4,0.2,2.1,0.3c0.6,0.1,1.3,0.1,1.7,0.4c1.2,1.1,2.2,8.4,1.4,9.8c-0.1,0.2-0.3,0.4-0.4,0.4c-2.2,0.9-4.3,1.9-6.5,2.6
		c-2.1,0.7-4.4,1-6.6,1.6c-0.4,0.1-0.7,0.6-0.9,1c-2.5,4.7-3.5,9.7-3.9,14.9c-0.3,4.3-0.8,8.6-0.8,12.8c0,4.5,0.3,9.1,0.8,13.6
		c0.3,2.1,1.1,4.2,2.2,6C533.2,197,534.8,197.8,535.6,198.3z"/>
</g>
<g>
	<path class="st0" d="M558.6,96.5c-1.3,5.5-2.4,11.1-3.9,16.5c-1.1,3.9-4.6,4.6-8.1,5.1c-2.7,0.5-5.3,1.5-8,1.7
		c-2.1,0.2-4.3-0.2-6.4-0.8c-4.7-1.3-8.8-3.9-11.9-7.8c-3.8-4.7-5.2-10.4-5.8-16.3c-0.9-9.3-0.8-18.6,0.4-27.9
		c0.8-5.9,2-11.7,4.9-17c2.4-4.5,9.4-7.7,14.2-6.2c2.3,0.7,4.7,1,6.9,1.9c2,0.9,4.2,2,5.6,3.6c2.7,3.2,2.3,5.1-1.4,7.4
		c-2.4,1.5-4.8,3.5-8.1,2.6c-1.1-0.3-2.3-0.6-3.3-0.4c-4.7,1.2-5.2,5.4-5.6,9.1c-1,7.9-1.8,15.8-2.4,23.8
		c-0.4,5.5,0.8,10.7,3.4,15.6c0.2,0.3,0.6,0.6,0.9,0.8c1.2,0.6,2.5,1,3.6,1.8c3,2.1,9.1,1.1,10.3-2.3c1.3-3.7,1.8-7.7,2.4-11.6
		c0.2-1.5-0.5-2.3-2.6-2c-4,0.4-8.6,0.8-10.9-3.7c-0.8-1.7-0.8-4.1-0.3-6c0.2-0.9,2-1.8,3.3-2.1c3.3-0.8,6.6-0.6,9.9,0.7
		c1.7,0.7,3.8,0.1,5.6,0.6c1.9,0.6,4.2,1.4,5.2,2.9c1.2,1.6,1.3,4.1,1.7,6.3c0.2,1,0,2.2-0.1,3.2C558.2,96.4,558.4,96.5,558.6,96.5z
		"/>
</g>
<g>
	<path class="st0" d="M373.8,233.9c1.2,1.8,3.3,5.1,6.2,5.9c1.7,0.5,3.5-0.6,6-2.7c1.3-1,2.5-3.7,2-5.1c-0.7-2.1-2.7-3.7-4.3-5.4
		c-1.3-1.4-2.7-2.7-4.1-3.8c-1.1-0.9-2.3-2.1-3.6-2.4c-4.1-0.9-8.3-1-12.3,0.3c-2.5,0.8-5.2,1.4-7,3.8c-2.1,2.8-3.5,5.8-3.8,9.3
		c-0.2,2.8-0.4,5.6,0,8.3c0.3,1.8,1.1,3.5,2.1,5c2,2.8,4.2,5.6,6.7,7.8c3.5,3,6,6.4,9.6,9.2c0,0,0,0,0.1,0c3.5,2.6,6.2,7.3,4.7,11.5
		c-0.1,0.3-0.2,0.6-0.3,1c-0.7,3.6-7.1,5.3-9.7,1.7c-1.6-2.2-2.8-4.8-4.5-6.9c-1.1-1.4-2.5-2.8-4-3.6c-2.1-1.1-5.8,2.6-5.7,5.1
		c0.1,3.1,1,5.6,3.1,8.1c4.5,5.4,9,10.5,16.4,10.6c1.6,0,3.1-0.3,4.7-0.5c3.2-0.5,6.4-1.2,8.9-3.5c1.2-1.1,2.6-2.3,3.1-3.8
		c0.9-2.4,1.5-5.1,1.5-7.7c0-2.7-0.1-5.8-1.5-7.9c-4.8-7.4-9-13.9-16.7-18c-3.1-1.6-5.7-3.7-6.4-7.3c-0.6-3.1-0.8-5.1,0.4-7.3
		C365.8,235.6,370.7,229,373.8,233.9z"/>
	<path class="st0" d="M371.9,292.3c-0.1,0-0.2,0-0.2,0c-8-0.2-13-6.1-16.9-10.9c-2.2-2.6-3.1-5.1-3.3-8.5c-0.1-1.9,1.7-4.2,3.4-5.3
		c1.2-0.8,2.4-0.9,3.3-0.4c1.9,1,3.3,2.6,4.2,3.8c0.9,1.2,1.6,2.4,2.4,3.7c0.7,1.1,1.3,2.2,2.1,3.3c1.2,1.7,3.4,1.9,5,1.5
		c1.8-0.4,3.3-1.6,3.5-3c0.1-0.4,0.2-0.8,0.3-1.1c1.4-4-1.4-8.4-4.5-10.8c-2.1-1.6-3.8-3.4-5.5-5.1c-1.3-1.4-2.7-2.8-4.3-4.1
		c-2.7-2.3-5-5.3-6.9-7.9c-1.2-1.6-1.9-3.4-2.3-5.3c-0.4-2.5-0.3-5.2-0.1-7.7l0-0.7c0.2-3.3,1.5-6.5,3.9-9.7
		c1.7-2.3,4.2-3.1,6.5-3.8l0.8-0.3c3.8-1.2,8.1-1.3,12.7-0.3c1.2,0.3,2.2,1.2,3.2,1.9c0.2,0.2,0.5,0.4,0.7,0.6
		c1.4,1.1,2.8,2.4,4.2,3.9c0.3,0.3,0.6,0.7,1,1c1.4,1.4,2.8,2.9,3.5,4.7c0.5,1.6-0.8,4.6-2.3,5.8c-2.6,2.2-4.6,3.4-6.6,2.8
		c-3.2-0.9-5.5-4.5-6.6-6.2l0,0c-0.6-1-1.3-1.4-2.1-1.5c0,0,0,0-0.1,0c-1.9,0-4,2.3-4.7,3.2c-1.1,2-0.9,3.9-0.3,6.8
		c0.7,3.5,3.3,5.4,6.1,6.8c7.7,4.1,11.8,10.5,16.7,17.8l0.2,0.4c1.4,2.1,1.6,5.2,1.6,8.2c0,2.4-0.5,5.1-1.5,7.9
		c-0.6,1.6-1.9,2.9-3.2,4l-0.1,0.1c-2.8,2.5-6.2,3.2-9.3,3.7c-0.3,0-0.7,0.1-1,0.2C374.3,292.1,373.1,292.3,371.9,292.3z
		 M357.1,268.3c-0.4,0-0.9,0.2-1.5,0.5c-1.5,1-2.8,2.9-2.8,4.1c0.1,3,1,5.3,3,7.7c4.8,5.8,9,10.2,15.9,10.4c1.2,0,2.4-0.2,3.6-0.4
		c0.3-0.1,0.7-0.1,1-0.2c2.9-0.4,6.1-1,8.6-3.3l0.1-0.1c1.1-1,2.3-2.2,2.8-3.4c1-2.7,1.4-5.2,1.4-7.4c0-2.7-0.2-5.7-1.4-7.5
		l-0.2-0.4c-4.7-7.2-8.8-13.4-16.2-17.4c-2.9-1.6-6-3.7-6.8-7.8c-0.6-3.1-0.9-5.4,0.5-7.8c0.2-0.2,3-4,5.9-3.8
		c1.3,0,2.4,0.7,3.2,2.1l0,0c1,1.6,3.1,4.9,5.9,5.6c1.5,0.4,3.1-0.7,5.4-2.5c1.1-0.9,2.2-3.4,1.8-4.3c-0.5-1.5-1.8-2.9-3.1-4.2
		c-0.3-0.3-0.7-0.7-1-1c-1.4-1.5-2.7-2.7-4.1-3.8c-0.2-0.2-0.5-0.4-0.7-0.6c-0.8-0.7-1.7-1.4-2.6-1.6c-4.4-1-8.4-0.9-12,0.3
		l-0.8,0.3c-2.3,0.7-4.4,1.4-5.9,3.3c-2.2,3-3.4,5.9-3.6,9l0,0.7c-0.2,2.5-0.3,5,0.1,7.4c0.3,1.6,1,3.3,2,4.7
		c1.9,2.7,4.1,5.5,6.6,7.7c1.6,1.4,3,2.8,4.4,4.2c1.7,1.8,3.3,3.4,5.2,4.9c3.6,2.7,6.6,7.7,5,12.3c-0.1,0.3-0.2,0.6-0.2,0.9
		c-0.4,1.9-2.1,3.5-4.5,4c-2.6,0.6-5-0.2-6.4-2.1c-0.8-1.1-1.5-2.3-2.2-3.4c-0.7-1.2-1.5-2.4-2.3-3.5c-1.2-1.5-2.5-2.8-3.8-3.4
		C357.4,268.3,357.2,268.3,357.1,268.3z"/>
</g>
<g>
	<path class="st0" d="M536.7,249.5c2.2-0.5,4.2-1.3,6.1-1.1c2,0.2,4.1,1,6,2c2.2,1.1,4.1,2.5,6.3,3.9c0,0.4,0,1.1,0,1.8
		c-0.2-0.1-0.3-0.3-0.5-0.4c-1,1-1.9,2.1-3,2.8c-1.1,0.7-2.4,1.3-3.7,1.4c-3.3,0.2-6.6,0-9.9,0.1c-0.5,0-1.3,1.1-1.2,1.7
		c0.2,4.7,0.6,9.4,0.9,14.1c0.1,1.2,0.5,1.6,2,1.5c4.9-0.1,9.8,0.1,14.7,0.2c1.4,0,2.9-0.3,4.2,0c3.5,0.6,5.9,2.9,7.8,5.6
		c0.4,0.6-0.3,2.6-1.1,3.4c-2,2.2-3.6,5.2-7.4,4.7c-4.5-0.6-8.9-1.2-13.4-1.4c-4.3-0.2-8.5-1.5-12.9,0c-2.5,0.9-5-1.9-5.2-4.6
		c-0.5-6.8-1.4-13.5-1.8-20.3c-0.4-6.3-0.4-12.7-0.4-19c0.1-6.6,0.4-13.1,0.8-19.7c0.1-1.2,0.4-2.6,1.1-3.6c1.4-2.1,3.5-1.6,5.5-1.1
		c0.7,0.2,1.4,0.3,2.1,0.2c3-0.3,6.1-1,9.1-0.9c4.7,0.1,9.4,0.7,14.1,1.3c1.4,0.2,2.7,0.9,4,1.6c0.8,0.4,1.8,1.2,1.8,1.9
		c0,2.1,0,4.1-2.8,5.1c-3.5,1.2-6.8,0-10.2,0.3c-3.9,0.4-7.8,0.5-11.7,0.9c-0.5,0-1.1,1.1-1.2,1.7c-0.3,4.7-0.5,9.5-0.7,14.2
		C536.3,248.5,536.6,249.3,536.7,249.5z"/>
	<path class="st0" d="M558.8,291.6c-0.3,0-0.6,0-0.9-0.1c-0.8-0.1-1.5-0.2-2.3-0.3c-3.6-0.5-7.4-1-11.1-1.1c-1.3,0-2.5-0.2-3.8-0.3
		c-2.9-0.3-5.9-0.7-8.9,0.3c-1,0.3-2.1,0.2-3.1-0.5c-1.4-0.9-2.4-2.7-2.5-4.5c-0.2-2.8-0.5-5.7-0.8-8.5c-0.4-3.9-0.8-7.9-1-11.8
		c-0.3-5.8-0.5-12-0.4-19.1c0.1-6.5,0.4-13.1,0.8-19.5l0-0.2c0.1-1.4,0.5-2.8,1.2-3.8c1.5-2.2,3.8-1.7,5.8-1.3l0.1,0
		c0.8,0.2,1.5,0.2,2,0.2c1-0.1,2.1-0.2,3.1-0.4c2-0.3,4-0.6,6-0.5c4.7,0.1,9.4,0.7,14.1,1.3c1.4,0.2,2.9,1,4.1,1.7
		c0.2,0.1,2,1.1,2,2.2c0,2.1,0,4.4-3,5.4c-2.2,0.8-4.4,0.6-6.4,0.4c-1.3-0.1-2.6-0.2-3.8-0.1c-1.7,0.2-3.4,0.3-5.1,0.4
		c-2.2,0.2-4.4,0.3-6.7,0.6c-0.2,0-0.8,0.9-0.9,1.4c-0.3,5-0.5,10-0.7,14.2c0,0.5,0.1,1.1,0.2,1.4c0.6-0.1,1.1-0.3,1.7-0.4
		c1.4-0.4,2.8-0.7,4.1-0.6c2.2,0.2,4.5,1.2,6.1,2c1.5,0.7,2.9,1.7,4.4,2.7c0.6,0.4,1.3,0.9,2,1.3l0.2,0.1v2.7l-0.8-0.7
		c-0.2,0.2-0.4,0.4-0.6,0.7c-0.7,0.7-1.4,1.4-2.2,2c-1,0.6-2.4,1.4-3.8,1.5c-1.8,0.1-3.5,0.1-5.3,0.1c-1.5,0-3.1,0-4.6,0
		c-0.2,0-0.9,0.9-0.9,1.4c0.2,3.8,0.4,7.7,0.7,11.4l0.2,2.7c0.1,1,0.3,1.3,1.6,1.2c3.3-0.1,6.8,0,10.1,0.1c1.6,0,3.1,0.1,4.7,0.1
		c0.5,0,1.1,0,1.6-0.1c0.9-0.1,1.8-0.1,2.7,0c3.8,0.6,6.3,3.4,8,5.7c0.6,0.8-0.3,3-1.1,3.9c-0.3,0.3-0.6,0.7-0.9,1.1
		C563.2,289.7,561.6,291.6,558.8,291.6z M536.3,288.8c1.5,0,3.1,0.2,4.6,0.4c1.2,0.1,2.5,0.3,3.7,0.3c3.7,0.1,7.5,0.6,11.2,1.1
		c0.8,0.1,1.5,0.2,2.3,0.3c3,0.4,4.6-1.5,6.2-3.5c0.3-0.4,0.6-0.7,0.9-1.1c0.8-0.9,1.3-2.6,1-3c-1.7-2.2-4-4.9-7.6-5.4
		c-0.8-0.1-1.6-0.1-2.5,0c-0.5,0-1.1,0.1-1.6,0.1c-1.6,0-3.1-0.1-4.7-0.1c-3.3-0.1-6.7-0.2-10-0.1c-1.6,0-2.2-0.4-2.3-1.9l-0.2-2.7
		c-0.3-3.7-0.5-7.6-0.7-11.4c0-0.5,0.4-1.1,0.5-1.3c0.2-0.3,0.6-0.8,1.1-0.8c1.5-0.1,3.1,0,4.6,0c1.7,0,3.5,0,5.2-0.1
		c1.3-0.1,2.6-0.8,3.5-1.4c0.8-0.5,1.4-1.2,2.1-1.9c0.3-0.3,0.6-0.6,0.9-0.9l0.2-0.2l0.1,0.1v-0.8c-0.6-0.4-1.2-0.8-1.8-1.2
		c-1.5-1-2.8-1.9-4.3-2.6c-1.6-0.8-3.8-1.7-5.9-1.9c-1.2-0.1-2.5,0.2-3.9,0.6c-0.7,0.2-1.3,0.4-2.1,0.5l-0.3,0.1l-0.1-0.3
		c0,0,0-0.1-0.1-0.2c-0.1-0.4-0.3-1-0.2-1.7c0.2-4.2,0.4-9.1,0.7-14.2c0-0.7,0.8-1.9,1.5-2c2.2-0.2,4.5-0.4,6.7-0.6
		c1.7-0.1,3.4-0.2,5-0.4c1.3-0.1,2.7,0,4,0.1c2,0.2,4.1,0.3,6.2-0.4c2.5-0.9,2.5-2.7,2.6-4.7c0-0.4-0.7-1.1-1.6-1.6
		c-1.3-0.7-2.6-1.4-3.9-1.6c-4.8-0.6-9.4-1.1-14.1-1.3c-2-0.1-4,0.2-5.9,0.5c-1,0.1-2.1,0.3-3.2,0.4c-0.6,0.1-1.4,0-2.2-0.2l-0.1,0
		c-2-0.4-3.9-0.8-5.1,1c-0.6,0.9-1,2.2-1.1,3.5l0,0.2c-0.3,6.4-0.7,13-0.8,19.5c-0.1,7,0.1,13.3,0.4,19c0.2,3.9,0.6,7.9,1,11.8
		c0.3,2.8,0.6,5.7,0.8,8.5c0.1,1.6,1,3.2,2.2,4c0.6,0.4,1.5,0.7,2.5,0.4C533.2,289,534.7,288.8,536.3,288.8z"/>
</g>
<g>
	<path class="st0" d="M547.6,349.4c-0.2,0.9-2.5,1.9-4,2.1c-3.9,0.6-7.8,0.9-11.7,1.1c-1.5,0.1-2,0.4-2,1.8
		c0.2,5.4,0.3,10.9,0.5,16.3c0,0.4,1.3,1,2.1,1.1c1.6,0.2,3.3,0.1,4.9,0.1c4.3-0.4,12.4,1.7,12.4,1.7c1.8,0.5,3.9-0.5,5.4,0.8
		c1.1,1,1.3,2.5,2.3,3.7c0.3,0.4,0.9,3.6,0.8,3.8c-0.5,0.7-1.2,1.5-2,1.7c-4,0.8-8.1,1.8-12.1,2c-4.7,0.3-9.5-0.2-14.2-0.4
		c-2.1-0.1-4.2-0.2-6.2-0.2c-2.2,0-3.7-1.4-4-3.2c-0.6-3.3-0.7-6.6-0.7-10c-0.1-4.5,0.2-9,0.1-13.5c-0.2-6.7-0.6-13.4-0.9-20
		c-0.3-7.5-0.6-15-0.7-22.5c0-2.2-0.1-4.7,2.6-6c0.5-0.2,1.1-0.4,1.6-0.4c5.5-0.2,11-0.1,16.5-0.6c4.5-0.4,8.9-0.9,13.1,1.1
		c2,0.9,3.7,2.3,5.6,3.5c0.1,0.1,0.2,0.3,0.2,0.4c0.1,0.7-3.3,3.7-4.1,3.7c-1.8,0.1-3.5,0.4-5.3,0.4c-5,0-10.1,0.1-15.1-0.1
		c-2.5-0.1-4.2,0.9-4.1,3.4c0.3,5.8,0.7,11.7,1.1,17.5c0,0.5,0.9,1.2,1.4,1.3c2.8,0.5,5.5,0.9,8.3,1.4c0.9,0.2,1.8,0.2,2.7,0.1
		C544.1,341.5,548.1,342.2,547.6,349.4z"/>
	<path class="st0" d="M541.2,387.1c-2.4,0-4.8-0.1-7.1-0.2c-1.4-0.1-2.8-0.1-4.2-0.2c-0.8,0-1.6-0.1-2.4-0.1
		c-1.3-0.1-2.6-0.1-3.8-0.1c-2.8,0-5-1.8-5.4-4.3c-0.6-3.4-0.7-6.9-0.7-10.2c0-2.1,0-4.3,0.1-6.4c0.1-2.3,0.1-4.7,0.1-7.1
		c-0.1-4-0.3-8.1-0.5-12.1c-0.1-2.6-0.3-5.3-0.4-7.9l-0.1-1.5c-0.3-6.9-0.6-14-0.7-21c0-2.4-0.1-5.6,3.4-7.2
		c0.7-0.3,1.4-0.5,2.2-0.5c1.8-0.1,3.6-0.1,5.4-0.1c3.6-0.1,7.4-0.1,11-0.5l0.3,0c4.5-0.4,9.1-0.8,13.6,1.3c1.5,0.7,2.9,1.6,4.2,2.5
		c0.5,0.4,1,0.7,1.6,1.1c0.4,0.3,0.7,0.8,0.8,1.3c0.1,0.8-0.3,1.5-0.8,2c-0.4,0.4-3.1,3.3-4.7,3.3c-0.8,0-1.5,0.1-2.3,0.2
		c-1,0.1-2,0.2-3,0.2l-0.9,0c-4.7,0-9.5,0.1-14.2-0.1c-1,0-1.8,0.1-2.2,0.5c-0.3,0.3-0.4,0.7-0.4,1.4c0.3,5.5,0.7,11.3,1.1,17.3
		c0.1,0.1,0.2,0.2,0.3,0.3c1.6,0.3,3.4,0.6,5.1,0.9c1,0.2,2.1,0.3,3.1,0.5c0.7,0.1,1.6,0.2,2.4,0.1c1.9-0.1,3.7,0.5,4.9,1.7
		c1.6,1.6,2.4,4.1,2.2,7.6l0,0.2c-0.5,2.4-5.2,3.2-5.2,3.2c-4.3,0.7-8.6,1-11.9,1.2c-0.3,0-0.5,0-0.6,0.1c0,0.1,0,0.2,0,0.3
		c0.1,2,0.1,4.1,0.2,6.1c0.1,3.2,0.2,6.4,0.3,9.6c0.3,0.1,0.6,0.2,0.8,0.3c1.1,0.1,2.1,0.1,3.3,0.1c0.5,0,1,0,1.5,0
		c4.4-0.4,12.5,1.6,12.8,1.7c0.5,0.1,1.1,0.1,1.7,0.1c1.3-0.1,2.9-0.1,4.2,1.1c0.9,0.8,1.3,1.7,1.6,2.5c0.2,0.5,0.5,1,0.8,1.4
		c0.4,0.5,1.5,4.5,0.8,5.5c-0.7,1-1.6,2-2.8,2.2c-0.7,0.1-1.4,0.3-2.1,0.4c-3.3,0.7-6.8,1.4-10.2,1.6
		C543.2,387,542.2,387.1,541.2,387.1z M543.8,309.9c-1.7,0-3.5,0.2-5.2,0.3l-0.3,0c-3.7,0.3-7.5,0.4-11.2,0.5
		c-1.8,0-3.5,0.1-5.3,0.1c-0.4,0-0.7,0.1-1,0.2c-1.8,0.9-1.8,2.3-1.8,4.7c0.1,7,0.4,14.1,0.7,21l0.1,1.5c0.1,2.6,0.2,5.3,0.4,7.9
		c0.2,4,0.4,8.1,0.5,12.2c0.1,2.4,0,4.9-0.1,7.2c0,2.1-0.1,4.2-0.1,6.3c0,3.2,0.1,6.6,0.7,9.8c0.2,0.9,0.9,2,2.6,2
		c1.3,0,2.6,0.1,3.9,0.1c0.8,0,1.6,0.1,2.4,0.1c1.4,0,2.8,0.1,4.3,0.2c3.2,0.2,6.6,0.3,9.8,0.2c3.2-0.2,6.6-0.9,9.8-1.5
		c0.7-0.1,1.4-0.3,2.1-0.4c0.1,0,0.3-0.1,0.8-0.8c-0.1-0.7-0.4-2.2-0.5-2.6c-0.5-0.6-0.8-1.3-1.1-1.9c-0.3-0.6-0.5-1.2-1-1.6
		c-0.4-0.4-1.1-0.4-2.1-0.3c-0.8,0-1.7,0.1-2.6-0.2c0,0-7.9-2-11.9-1.6c-0.6,0-1.1,0-1.5,0c-1.2,0-2.4,0.1-3.7-0.1
		c-0.5-0.1-3.3-0.7-3.4-2.4c-0.2-3.4-0.3-6.9-0.4-10.2c-0.1-2-0.1-4.1-0.2-6.1c-0.1-3.1,2.4-3.2,3.3-3.3c3.2-0.2,7.4-0.5,11.6-1.1
		c1.2-0.2,2.4-0.8,2.8-1.1c0.1-2.5-0.3-4.3-1.3-5.2c-0.8-0.8-1.9-0.9-2.7-0.9c-1.1,0.1-2.1,0-3.1-0.2c-1-0.2-2.1-0.3-3.1-0.5
		c-1.7-0.3-3.5-0.6-5.2-0.9c-1.1-0.2-2.5-1.4-2.6-2.6c-0.5-6-0.9-11.9-1.1-17.5c-0.1-1.8,0.6-2.9,1.2-3.5c1-0.9,2.5-1.4,4.3-1.3
		c4.7,0.2,9.5,0.2,14.1,0.1l0.9,0c0.9,0,1.8-0.1,2.7-0.2c0.8-0.1,1.5-0.2,2.3-0.2c0.6-0.3,1.9-1.4,2.5-2.1c-0.3-0.2-0.6-0.4-0.9-0.6
		c-1.3-0.9-2.5-1.7-3.7-2.3C548.4,310.2,546.1,309.9,543.8,309.9z M557.1,381.1C557.1,381.1,557.1,381.1,557.1,381.1
		C557.1,381.1,557.1,381.1,557.1,381.1z M546.3,349L546.3,349L546.3,349z M531.1,338.6L531.1,338.6L531.1,338.6z M556,314.6
		C556,314.6,556,314.7,556,314.6C556,314.7,556,314.6,556,314.6z"/>
</g>
<g>
	<path class="st0" d="M450.4,279.3c-0.3-4.9-0.4-9.8-1-14.7c-0.2-1.4-1.9-2.6-2.7-3.9c-1.8-3.2-4-6.3-5.1-9.6
		c-1.7-5.2-2.6-10.6-3.8-15.9c-0.7-3.2-1.5-6.4-1.8-9.6c-0.1-1.3,0.7-3.1,1.9-3.8c1-0.7,3-0.4,4.6-0.2c0.8,0.1,1.5,0.7,2.3,1.1
		c3.4,1.4,3.9,2.7,4,5.9c0,2.8,0.8,5.5,1.3,8.3c0.7,3.6,1.3,7.3,2.3,10.9c0.6,2.2,2,4.3,3.1,6.4c0.1,0.2,0.8,0.3,0.9,0.3
		c0.4-0.4,0.8-0.8,0.9-1.3c0.9-4.1,1.8-8.3,2.6-12.5c0.9-4.4,1.7-8.9,2.5-13.3c0.3-1.4,0-2.9,0.8-4.1c1-1.5,2.4-2.1,5-1.4
		c3.3,0.8,4.2,3.3,6.3,4.8c0.9,0.6,0.2,3.1-0.1,4.6c-1.7,8.5-3.4,17.1-5.3,25.6c-0.5,2.4-1.2,5-4.7,5.9c-0.6,0.2-1.2,1.4-1.2,2.1
		c-0.2,4.9-0.3,9.7-0.4,14.6c0,2.5-0.2,5,0.3,7.4c0.6,2.5,0,4.1-2.4,5.5c-2.1,1.2-6.7,1-8.3-0.7c-0.4-0.5-0.7-1.1-0.8-1.7
		c-0.5-3.5-1-7-1.4-10.5C450.2,279.3,450.3,279.3,450.4,279.3z"/>
	<path class="st0" d="M457.2,294.4c-2.2,0-4.6-0.6-5.8-1.9c-0.6-0.7-1-1.5-1.1-2.4c-0.4-2.6-0.7-5.3-1.1-7.9l-0.5-4.1l0.4,0
		c0-0.9-0.1-1.8-0.1-2.7c-0.2-3.5-0.3-7.1-0.8-10.6c-0.1-0.4-0.6-1.1-1.2-1.6c-0.5-0.6-1-1.1-1.4-1.8c-0.5-0.8-0.9-1.6-1.4-2.3
		c-1.5-2.4-3-4.9-3.9-7.6c-1.3-4-2.2-8.1-3-12.1c-0.3-1.3-0.5-2.6-0.8-3.9l-0.3-1.4c-0.6-2.8-1.3-5.6-1.5-8.5
		c-0.1-1.8,0.9-4,2.5-5.1c1.3-0.9,3.2-0.7,4.8-0.5l0.6,0.1c0.8,0.1,1.5,0.4,2,0.8c0.2,0.1,0.5,0.3,0.7,0.4c4.1,1.7,4.8,3.6,4.8,7.2
		c0,2,0.4,3.9,0.9,6c0.1,0.7,0.3,1.4,0.4,2c0.1,0.8,0.3,1.5,0.4,2.3c0.5,2.8,1,5.7,1.8,8.4c0.4,1.5,1.2,2.9,2.1,4.4
		c0.1,0.2,0.2,0.3,0.3,0.5c1-4.7,1.8-8.4,2.5-11.8c0.8-3.8,1.5-7.6,2.2-11.4l0.4-2c0.1-0.4,0.1-0.8,0.1-1.3c0.1-1.1,0.2-2.3,0.8-3.3
		c1.8-2.8,4.5-2.5,6.5-2c2.5,0.6,3.9,2.1,5.1,3.3c0.6,0.6,1.1,1.2,1.7,1.6c1.5,1.1,1,3.4,0.6,5.4l-0.1,0.6
		c-1.6,7.9-3.3,16.8-5.3,25.6c-0.5,2.3-1.3,5.7-5.5,6.9c-0.1,0.2-0.3,0.7-0.4,0.9c-0.2,4.4-0.3,9.1-0.4,14.5c0,0.5,0,0.9,0,1.4
		c0,2-0.1,3.9,0.3,5.7c0.7,3.2-0.3,5.4-3.1,7C460.3,294.1,458.8,294.4,457.2,294.4z M451.7,280.6l0.2,1.1c0.4,2.6,0.7,5.3,1.1,7.9
		c0,0.3,0.2,0.7,0.5,0.9c1,1.1,5,1.4,6.6,0.5c1.8-1,2.2-2.1,1.8-4.1c-0.5-2.1-0.4-4.3-0.4-6.4c0-0.4,0-0.9,0-1.3
		c0.1-5.4,0.2-10.2,0.4-14.6c0-1,0.7-3,2.2-3.4c2.6-0.7,3.1-2.3,3.7-4.9c2-8.7,3.7-17.7,5.3-25.5l0.1-0.6c0.1-0.7,0.5-2.2,0.3-2.8
		c-0.8-0.6-1.4-1.3-2-1.9c-1.1-1.1-2-2.1-3.7-2.5c-2.4-0.6-3,0.1-3.5,0.8c-0.3,0.5-0.4,1.2-0.4,2c0,0.5-0.1,1.1-0.2,1.6l-0.4,2
		c-0.7,3.8-1.4,7.6-2.2,11.4c-0.9,4.6-1.9,9.1-2.6,12.5c-0.2,0.8-0.7,1.4-1.2,1.9c-0.3,0.4-0.8,0.5-1.4,0.4c-0.5-0.1-1.3-0.3-1.7-1
		c-0.3-0.6-0.6-1.1-0.9-1.7c-0.9-1.6-1.8-3.2-2.3-5c-0.8-2.9-1.4-5.8-1.9-8.7c-0.1-0.8-0.3-1.5-0.4-2.3c-0.1-0.7-0.3-1.3-0.4-2
		c-0.5-2.1-0.9-4.3-0.9-6.6c0-2.8-0.3-3.5-3.1-4.7c-0.4-0.1-0.7-0.3-1-0.5c-0.3-0.2-0.7-0.4-0.9-0.4l-0.6-0.1
		c-0.9-0.1-2.6-0.2-3.1,0.1c-0.7,0.5-1.4,1.8-1.3,2.6c0.2,2.7,0.8,5.4,1.4,8.1l0.3,1.4c0.3,1.3,0.6,2.6,0.8,3.9
		c0.8,3.9,1.7,8,3,11.9c0.8,2.4,2.1,4.6,3.6,7c0.5,0.8,1,1.6,1.4,2.4c0.2,0.4,0.6,0.9,1.1,1.3c0.8,0.9,1.7,1.9,1.8,3.1
		c0.4,3.6,0.6,7.2,0.8,10.8c0.1,1.3,0.1,2.7,0.2,4l0.1,1.4L451.7,280.6z M456.6,253.4C456.6,253.4,456.6,253.4,456.6,253.4
		C456.6,253.4,456.6,253.4,456.6,253.4z"/>
</g>
<g>
	<path class="st0" d="M473.9,385.5c2.3-0.1,4.2-0.2,6.2-0.4c0.4,0,1-0.3,1.1-0.6c0.6-1.9,0.8-4.1,0.8-6c0-7.8-1.6-15.3-1.8-23.1
		c0-1.3,0.2-2.5,0.1-3.7c-0.1-1.5,2.7-3,4.2-3.4c3.1-0.9,6.1-1.8,9-2.8c2.4-0.7,5.8-2.7,4.9-7.1c-1.2-5.8-12.9-4.3-19.7-2.5
		c-0.2-0.6-0.5-1-0.5-1.4c-0.2-3.7-0.3-7.3-0.4-11c-0.1-2.6,2-5,4.7-5.3c0.3,0,0.6-0.1,1-0.2c5.9-1.1,11.7,1.5,17.8-0.4
		c4.1-1.2,6.1-2.7,3.4-5c-2.3-1.9-5.2-4.2-8.9-4.2c-0.8,0-1.6,0-2.5,0c-0.1,0.2-0.2,0.5-0.2,0.5c-1,0-1.7-0.1-2.3-0.1
		c-1.4,0.1-2.8,0.6-4.2,0.6c-4.2,0-8.4-0.2-12.6-0.3c-0.2,0-0.4,0-0.7-0.1c-1.4-0.3-7.2-1.3-8,1.9c-0.2,7.7-0.1,15.5,0.2,23.2
		c0.2,4.3,0.9,8.7,1.3,13c0.6,6.5,1.2,13,1.8,19.4c0.2,1.9,0,3.8,0.3,5.6c0.7,4-1.9,8.3,1.9,12.1
		C470.8,384.4,471.5,385.5,473.9,385.5z"/>
	<path class="st0" d="M473.9,386.9C473.9,386.9,473.9,386.9,473.9,386.9c-2.7-0.1-3.8-1.1-4.2-1.6c-3-3-2.6-6.2-2.3-9
		c0.1-1.3,0.3-2.6,0.1-3.7c-0.2-1.2-0.2-2.4-0.2-3.5c0-0.7,0-1.5-0.1-2.2c-0.6-6.5-1.1-12.9-1.8-19.4c-0.1-1.5-0.3-3.1-0.5-4.6
		c-0.3-2.8-0.7-5.6-0.8-8.5c-0.3-8.2-0.4-15.9-0.2-23.3c0-0.1,0-0.2,0-0.3c0.8-3,4.4-4.1,9.8-2.9c0.1,0,0.2,0,0.4,0c2,0,4,0.1,6,0.1
		c2.2,0.1,4.4,0.1,6.7,0.1c0,0,0,0,0,0c0.7,0,1.5-0.1,2.3-0.3c0.6-0.1,1.2-0.2,1.7-0.3c0.6-0.1,1.1,0,1.6,0c0.3-0.3,0.7-0.4,1.1-0.4
		l0.8,0c0.6,0,1.1,0,1.7,0c4.4,0,7.9,3,9.8,4.5c1.4,1.2,1.9,2.3,1.7,3.5c-0.4,2-3.1,3.1-5.6,3.9c-3.6,1.1-7.1,0.8-10.5,0.5
		c-2.6-0.3-5.1-0.5-7.5,0c-0.3,0.1-0.7,0.1-1,0.2c-1.9,0.3-3.5,2.1-3.4,3.9c0.1,3.2,0.2,6.3,0.4,9.5l0.1,1.3
		c3.7-0.9,12.6-2.6,17.3,0.2c1.5,0.9,2.5,2.2,2.8,3.8c1,4.8-2.4,7.6-5.9,8.7l-9,2.7c-1.5,0.5-3.1,1.6-3.2,2.1c0,0.7,0,1.4-0.1,2.1
		c0,0.5-0.1,1.1-0.1,1.6c0.1,3.6,0.5,7.2,0.9,10.7c0.5,4,0.9,8.2,0.9,12.4c0,2.6-0.3,4.7-0.8,6.4c-0.3,1.1-1.7,1.5-2.3,1.5
		c-1.5,0.1-2.9,0.2-4.5,0.3L473.9,386.9C474,386.9,473.9,386.9,473.9,386.9z M472,383.7c0,0,0.5,0.4,1.8,0.5l1.7-0.1
		c1.5-0.1,2.9-0.2,4.3-0.3c0.4-1.4,0.6-3.2,0.6-5.2c0-4.1-0.5-8.2-0.9-12.1c-0.4-3.5-0.8-7.2-0.9-10.9c0-0.7,0-1.3,0.1-1.9
		c0-0.6,0.1-1.2,0.1-1.8c-0.1-2.6,3.7-4.4,5.2-4.8l9-2.7c1.8-0.5,4.7-2,3.9-5.5c-0.2-0.8-0.6-1.4-1.5-1.9
		c-3.2-1.9-10.5-1.1-16.4,0.5c-0.7,0.2-1.5-0.2-1.8-0.9c-0.1-0.2-0.1-0.4-0.2-0.5c-0.2-0.4-0.3-0.8-0.4-1.3l-0.1-1.5
		c-0.1-3.2-0.3-6.3-0.4-9.5c-0.1-3.2,2.6-6.3,5.9-6.7c0.3,0,0.6-0.1,0.9-0.1c2.9-0.5,5.7-0.3,8.4,0c3.2,0.3,6.2,0.6,9.3-0.3
		c3.4-1,3.6-1.7,3.6-1.8l0,0c0,0-0.1-0.3-0.8-0.9c-2.2-1.9-4.8-3.8-7.9-3.9c-0.5,0-1,0-1.6,0c-0.3,0.4-0.8,0.5-1.3,0.5
		c-0.3,0-0.6,0-0.9-0.1c-0.5,0-0.8-0.1-1.1,0c-0.5,0.1-1,0.1-1.5,0.2c-0.9,0.2-1.8,0.4-2.9,0.3c-2.2,0-4.5-0.1-6.7-0.1
		c-2-0.1-3.9-0.1-5.9-0.1c-0.3,0-0.6,0-1-0.1c-2-0.4-5.7-0.8-6.3,0.8c-0.2,7.3-0.1,14.8,0.2,23c0.1,2.7,0.4,5.5,0.8,8.2
		c0.2,1.6,0.4,3.1,0.5,4.7c0.6,6.5,1.2,13,1.8,19.4c0.1,0.8,0.1,1.6,0.1,2.4c0,1.1,0,2.1,0.2,3.1c0.2,1.5,0.1,3-0.1,4.4
		c-0.3,2.6-0.5,4.8,1.6,6.9C471.9,383.5,472,383.6,472,383.7C472,383.7,472,383.7,472,383.7z"/>
</g>
<g>
	<path class="st0" d="M429.3,225.8c1.6,1.7,0.7,4.5-1.5,5.1c-1.4,0.4-2.7,0.7-4.1,1c-1.3,0.3-2.9-0.2-4,0.3
		c-0.7,0.3-1.1,1.9-1.1,2.9c-0.1,5.3-0.1,10.6,0,15.9c0.1,7.1,0.1,14.2,0.3,21.3c0.1,3.9,0.6,7.7,0.5,11.6c0,2.1-0.7,4.3-1.5,6.2
		c-0.9,2-4.1,2-6.1,1.4c-4.2-1.3-2-4.7-2.6-7c-0.9-3-0.4-6.4-0.7-9.5c-0.5-5.2-1.4-10.4-1.6-15.7c-0.4-8.7-0.4-17.3-0.6-26
		c0-0.3-0.1-0.6,0-0.2c-3-0.6-5.8-0.8-8.3-1.8c-1.6-0.6-3.9-1.6-3.3-4.2c0.1-0.5,0.1-1.1,0-1.6c-0.2-0.9-0.4-1.9-0.2-2
		c1.4-0.9,3.1-1.6,4.8-1.8c5.7-0.5,11.3-0.8,17-0.8c3.2,0,6.5,0.8,9.7,1.3c0.4,0.1,0.7,0.5,1,0.8c0.2,0.2,0.3,0.5,0.5,0.7
		C428.1,224.4,428.7,225.1,429.3,225.8z"/>
	<path class="st0" d="M414.1,293.1c-1,0-2-0.2-2.8-0.4c-3.9-1.2-3.7-4.2-3.5-6.1c0.1-0.7,0.1-1.4,0-1.9c-0.6-2.1-0.6-4.3-0.6-6.4
		c0-1.2,0-2.3-0.1-3.4c-0.2-2-0.4-4-0.7-6c-0.4-3.2-0.8-6.5-0.9-9.7c-0.3-6-0.4-12.2-0.4-18.1c0-2.3-0.1-4.7-0.1-7
		c-0.5-0.1-1.1-0.2-1.6-0.3c-2.1-0.3-4-0.7-5.9-1.4c-1.7-0.7-5-2.1-4-5.8c0.1-0.2,0.1-0.5,0-0.9l0-0.2c-0.3-1.4-0.6-2.7,0.5-3.3
		c1.9-1.2,3.7-1.8,5.4-2c5.5-0.4,11.4-0.8,17.1-0.8c2.5,0,5,0.5,7.3,0.9c0.9,0.2,1.7,0.3,2.6,0.5c0.8,0.1,1.3,0.7,1.6,1.1l0.2,0.2
		c0.2,0.2,0.4,0.5,0.5,0.6c0,0,0.1,0.1,0.1,0.1l1.8,2c1,1.2,1.4,2.8,1,4.3c-0.5,1.5-1.6,2.6-3.2,3c-1.7,0.4-2.9,0.7-4.1,1
		c-0.7,0.1-1.4,0.1-2.1,0.1c-0.6,0-1.2,0-1.5,0.1c-0.2,0.3-0.4,1.1-0.4,1.8c-0.1,5.4-0.1,10.8,0,15.9c0.1,7.2,0.1,14.2,0.3,21.2
		c0,1.5,0.1,3.1,0.2,4.7c0.1,2.3,0.3,4.6,0.2,7c-0.1,2.6-0.9,5.1-1.6,6.7C418.3,292.5,416.1,293.1,414.1,293.1z M406.2,231.5
		c0.2,0,0.4,0,0.6,0.1c0.8,0.4,0.8,1.2,0.8,1.6c0.1,2.6,0.1,5.3,0.1,7.9c0.1,5.9,0.2,12,0.4,18c0.1,3.2,0.5,6.4,0.9,9.5
		c0.2,2,0.5,4,0.7,6.1c0.1,1.2,0.1,2.4,0.1,3.6c0,2,0,4,0.5,5.7c0.3,0.9,0.2,1.9,0.1,2.8c-0.2,2-0.1,2.7,1.6,3.2
		c1.7,0.5,4,0.3,4.4-0.6c0.6-1.4,1.3-3.5,1.4-5.7c0.1-2.2-0.1-4.5-0.2-6.8c-0.1-1.6-0.2-3.2-0.2-4.8c-0.2-7.1-0.2-14.1-0.3-21.3
		c0-5.1-0.1-10.5,0-15.9c0-0.1,0.1-3.3,1.9-4.2c0.9-0.4,2-0.4,2.9-0.4c0.5,0,1,0,1.5-0.1c1.2-0.2,2.3-0.5,4-1
		c0.6-0.2,1.1-0.6,1.2-1.2c0.2-0.6,0-1.2-0.4-1.7l0,0l-1.8-2c-0.2-0.2-0.3-0.4-0.4-0.6c0,0-0.1-0.1-0.1-0.1l-0.2-0.2
		c-0.1-0.1-0.1-0.1-0.2-0.2c-0.8-0.1-1.6-0.3-2.5-0.4c-2.4-0.4-4.6-0.9-6.9-0.9c-5.7,0-11.5,0.4-16.9,0.8c-1,0.1-2.2,0.5-3.6,1.2
		c0,0.2,0.1,0.5,0.2,0.7l0,0.2c0.2,0.8,0.2,1.5,0,2.2c-0.3,1.1,0.2,1.6,2.4,2.6c1.6,0.7,3.5,1,5.4,1.3c0.7,0.1,1.3,0.2,2,0.3
		C406,231.5,406.1,231.5,406.2,231.5z M425.5,223.4L425.5,223.4L425.5,223.4z"/>
</g>
<g>
	<path class="st0" d="M518.9,290.5c-2.3,0.4-4.7,1.2-7,1.2c-3.4-0.1-6.8-0.9-10.3-1.1c-2.7-0.1-5.3,0.1-8,0.4
		c-6.7,0.9-10.7-4.2-10.7-9.9c0-7.7-0.6-15.3-0.9-23c-0.1-4.5-0.1-9-0.1-13.5c0-4.6,0-9.1,0.2-13.7c0.1-2.7,0.4-5.3,0.7-8
		c0.3-2.1,4.2-2.7,6.4-2c3.4,1,3.8,4.6,6.3,6.3c0.7,0.5,0.4,2.5,0.4,3.7c0,5.5-0.4,10.9-0.2,16.4c0.2,7.4,0.7,14.9,1.2,22.3
		c0.1,1.9,0.4,3.7,0.8,5.6c0.1,0.4,0.9,1,1.4,1c5.1,0.6,10.2,0.9,15.3,1.7c1.4,0.2,2.7,1.6,4,2.6c1,0.8,2,1.8,2.8,2.7
		c0.3,0.3,0.5,1,0.3,1.3C521.6,284.7,522.8,289.6,518.9,290.5z"/>
	<path class="st0" d="M512.1,291.8c-0.1,0-0.1,0-0.2,0c-1.9,0-3.7-0.3-5.5-0.6c-1.5-0.2-3.1-0.4-4.7-0.5c-2.3-0.1-4.9,0-8,0.4
		c-2.9,0.4-5.5-0.3-7.5-2.1c-2.1-1.9-3.4-4.8-3.3-8c0-4.8-0.2-9.6-0.5-14.3c-0.1-2.8-0.3-5.8-0.4-8.6c-0.1-3.6-0.1-7.3-0.1-10.8
		c0-0.9,0-1.8,0-2.6l0-1.5c0-4,0-8.1,0.2-12.1c0.1-2.3,0.3-4.9,0.7-8c0.1-0.6,0.5-1.1,1.1-1.6c1.5-1,4-1,5.5-0.6c2,0.6,3,2.1,4,3.6
		c0.7,1.1,1.3,2.1,2.4,2.8c0.6,0.4,0.6,1.7,0.5,3c0,0.3,0,0.6,0,0.9c0,2-0.1,4-0.1,5.9c-0.1,3.4-0.2,7-0.1,10.5
		c0.2,6.1,0.6,12.2,0.9,18.2c0.1,1.4,0.2,2.7,0.3,4.1c0.1,1.8,0.4,3.6,0.8,5.6c0.1,0.3,0.8,0.8,1.2,0.9c1.8,0.2,3.7,0.4,5.5,0.6
		c3.2,0.3,6.5,0.6,9.8,1.1c1.2,0.2,2.2,1.1,3.2,1.9c0.3,0.2,0.6,0.5,0.9,0.7c1.1,0.9,2.1,1.9,2.9,2.8c0.3,0.3,0.6,1,0.4,1.5
		c0.1,0.4,0.5,2.7-0.5,4.4c-0.5,0.8-1.3,1.4-2.3,1.6l0,0c-0.7,0.1-1.5,0.3-2.2,0.5C515.2,291.5,513.6,291.8,512.1,291.8z
		 M499.9,290.4c0.6,0,1.2,0,1.7,0c1.6,0.1,3.2,0.3,4.7,0.5c1.8,0.3,3.7,0.5,5.5,0.5c1.6,0,3.2-0.3,4.7-0.7c0.7-0.2,1.5-0.3,2.3-0.5
		c0.9-0.2,1.6-0.7,2.1-1.4c1-1.7,0.5-4.1,0.5-4.2l0-0.1l0-0.1c0.1-0.2-0.1-0.9-0.3-1.1c-0.8-0.9-1.7-1.9-2.8-2.7
		c-0.3-0.2-0.6-0.5-0.9-0.7c-1-0.8-2-1.7-3-1.8c-3.2-0.5-6.6-0.8-9.8-1.1c-1.8-0.2-3.7-0.4-5.5-0.6c-0.6-0.1-1.4-0.6-1.5-1.2
		c-0.4-2-0.7-3.8-0.8-5.6c-0.1-1.4-0.2-2.7-0.3-4.1c-0.4-6-0.8-12.1-0.9-18.2c-0.1-3.5,0-7,0.1-10.5c0.1-1.9,0.1-3.9,0.1-5.9
		c0-0.3,0-0.6,0-0.9c0-1.1,0.1-2.4-0.3-2.7c-1.1-0.7-1.8-1.8-2.5-2.9c-1-1.5-1.9-2.9-3.8-3.5c-1.6-0.5-4-0.3-5.3,0.5
		c-0.6,0.4-0.9,0.8-0.9,1.3c-0.4,3.1-0.6,5.6-0.7,8c-0.1,4-0.1,8.1-0.2,12.1l0,1.5c0,0.9,0,1.8,0,2.6c0,3.5,0,7.2,0.1,10.8
		c0.1,2.9,0.2,5.8,0.4,8.6c0.2,4.7,0.5,9.6,0.5,14.3c0,3.1,1.2,5.9,3.2,7.8c1.9,1.7,4.4,2.4,7.2,2
		C495.9,290.5,498,290.4,499.9,290.4z"/>
</g>
<g>
	<path class="st0" d="M378.5,307.8c0,0,5-0.6,6.9,1.1c2,1.6,4.2,3,3,5.9c-0.3,0.7,1.3,2.4,1.1,2.5c-1.6,0.9-3.3,1.9-5.2,2.3
		c-1.4,0.3-3.1-0.7-4.6-0.7c-1.6,0-3.4,0.2-4.8,0.9c-6.4,3.2-8.2,8.7-10.1,14.3c-3.4,9.9-3.7,19.8-1,29.9c0.9,3.5,6.1,6.9,10.1,6.7
		c6.8-0.3,10.7-2.8,12.9-8.2c1.3-3.1,4-3.3,7.5-1.3c3.8,2.1,2.9,5,2.8,7.9c-0.1,5.4-2.6,9.8-8.3,12.4c-3.2,1.4-6.8,1.6-10.4,0.5
		c-2.4-0.7-5.2-0.3-7.6-0.9c-2.8-0.8-5.4-2.1-8-3.4c-1.9-0.9-3.8-2-5.2-3.3c-1.6-1.6-3.1-3.4-4-5.3c-2.4-5.5-4.4-11-4.7-17
		c-0.3-6.9,1.4-13.3,3.1-19.9c1.5-5.7,3.6-11.2,7.6-15.9c1.9-2.2,4.6-3.9,6.8-5.9c3.4-3.1,7.6-2.9,11.9-2.4"/>
	<path class="st0" d="M383,384c-1.7,0-3.4-0.3-5.1-0.8c-1-0.3-2.2-0.4-3.5-0.4c-1.4-0.1-2.8-0.1-4.1-0.5c-2.8-0.8-5.4-2.1-7.9-3.3
		l-0.4-0.2c-1.8-0.9-3.9-2-5.5-3.6c-2-1.9-3.4-3.8-4.3-5.8c-2.2-5-4.5-11-4.8-17.5c-0.3-6.9,1.4-13.5,3-19.9l0.1-0.4
		c1.8-7.1,4.3-12.2,7.9-16.4c1.3-1.5,2.9-2.8,4.4-4c0.9-0.7,1.7-1.4,2.5-2.1c3.9-3.5,8.6-3.3,13.1-2.7c0,0,0.1,0,0.1,0
		c1.1-0.1,5.7-0.5,7.9,1.4l0.4,0.3c1.8,1.4,4.3,3.4,3.1,6.8c0.1,0.3,0.4,0.7,0.6,0.9c0.4,0.6,0.7,1,0.5,1.6
		c-0.1,0.4-0.3,0.7-0.7,0.9l-0.2,0.1c-1.6,0.9-3.4,1.9-5.4,2.3c-1.1,0.2-2.2-0.1-3.1-0.3c-0.6-0.2-1.2-0.3-1.7-0.3
		c-1.8,0-3.2,0.3-4.1,0.7c-5.8,2.9-7.5,8-9.4,13.4c-3.3,9.8-3.7,19.3-1,29.2c0.7,2.8,5.4,5.8,8.6,5.7c6.2-0.3,9.6-2.5,11.7-7.3
		c0.7-1.7,1.8-2.7,3.2-3.2c1.8-0.6,3.9-0.2,6.4,1.2c4,2.2,3.7,5.3,3.6,7.8c0,0.4-0.1,0.8-0.1,1.3c-0.2,6.3-3.3,11-9.1,13.6
		C387.4,383.5,385.3,384,383,384z M374.2,308.9c-2.5,0-4.9,0.5-6.8,2.3c-0.9,0.8-1.8,1.5-2.7,2.2c-1.5,1.2-2.9,2.3-4,3.6
		c-3.3,3.9-5.6,8.7-7.3,15.3l-0.1,0.4c-1.7,6.5-3.3,12.6-2.9,19.1c0.3,6.1,2.5,11.8,4.6,16.6c0.7,1.6,2,3.2,3.7,4.9
		c1.3,1.3,3.2,2.2,4.8,3.1l0.4,0.2c2.4,1.2,4.8,2.4,7.3,3.1c1,0.3,2.2,0.3,3.4,0.4c1.4,0.1,2.8,0.1,4.2,0.5c3.3,1,6.5,0.8,9.4-0.5
		c4.8-2.1,7.3-5.9,7.4-11.1c0-0.5,0-0.9,0.1-1.4c0.2-2.3,0.3-3.9-2.1-5.2c-1.7-0.9-3.1-1.3-4-1c-0.6,0.2-1.1,0.7-1.4,1.6
		c-2.4,5.9-6.9,8.8-14.2,9.1c-4.6,0.2-10.4-3.7-11.5-7.8c-2.7-10.2-2.4-20.5,1.1-30.6c2-5.8,4-11.7,10.8-15.1c1.3-0.7,3.1-1,5.4-1
		c0.9,0,1.7,0.2,2.5,0.4c0.7,0.2,1.4,0.4,1.9,0.3c1.2-0.2,2.3-0.8,3.5-1.4c-0.5-0.8-0.8-1.6-0.5-2.4c0.6-1.6,0-2.3-2.1-4l-0.5-0.4
		c-1-0.9-4-1-5.8-0.8c-0.2,0-0.3,0-0.5,0c-0.1,0-0.1,0-0.2,0C376.7,309,375.4,308.9,374.2,308.9z M388.9,316
		C388.9,316,388.9,316.1,388.9,316L388.9,316z M389.8,315.3C389.8,315.3,389.8,315.3,389.8,315.3
		C389.8,315.3,389.8,315.3,389.8,315.3z"/>
</g>
<g>
	<path class="st0" d="M280.5,77.3c-2.1-2.8-4.5-5.9-7.2-9.2l4.9-2.7c2.5,2.7,5,5.5,7.4,8.5L280.5,77.3z M286.7,88.1
		c-0.1-0.6-0.4-1.3-0.9-2.2c-0.4-1-0.8-1.8-1.1-2.2l-4.5,19.5l-5.8-1.6c1.8-5.7,3.4-12.4,4.9-20.1c0.6,0.2,1.4,0.4,2.5,0.7
		c1.2,0.4,2,0.7,2.5,0.9v-0.2c4.9-2.8,9-6.6,12.1-11.2h-10.1v-4.7h9.2v-6.3h-6.9v-4.7h6.9V50h5.6v5.8h10.1V50h5.6v5.8h8.1v4.7h-8.1
		v6.3h10.1v4.7h-11c2.8,4.3,6.8,7.7,11.9,10.1l-2.7,5.1c-3.3-1.9-6-4-8.3-6.3v11.2h-19.5v2.5c-0.2,2.2,1,3.3,3.6,3.1h13.9
		c2.7,0.1,4.2-0.7,4.5-2.7c0.1-0.6,0.4-1.7,0.7-3.4c0.1-0.9,0.3-1.6,0.4-2c1.6,0.7,3.3,1.3,4.9,1.8c-0.3,2.2-0.7,4.3-1.3,6
		c-0.9,3.4-3.6,5.1-8.1,5.1h-17c-4.5-0.2-6.8-2.3-6.9-6.5V84C290.2,85.4,288.5,86.7,286.7,88.1z M282,62.5c-1-1.5-2.7-3.6-4.9-6.3
		c-1-1.3-1.8-2.3-2.2-2.9l5.1-2.7l7.2,8.5L282,62.5z M297.2,81.8v5.6h14.1v-5.6H297.2z M302.4,71.5c-1.3,2.1-2.8,4-4.3,5.8H314
		c-0.9-0.9-2.1-2.6-3.6-5.1c-0.2-0.3-0.3-0.5-0.4-0.7H302.4z M301,60.5v6.3h10.1v-6.3H301z"/>
	<path class="st0" d="M275.5,148.1v-5.4h25.3v5.4h-9.6v13.2c4-0.4,8-1,11.9-1.6c0,1.8,0,3.7,0,5.8c-12.8,1-22.3,2.1-28.4,3.1
		l-1.1-5.6l11.6-1.1v-13.9H275.5z M273.7,135.1v-5.6h29.5c-0.3-3.7-0.4-7.4-0.4-11h6c0,1.2,0.1,3,0.2,5.4c0,2.5,0,4.4,0,5.6H327v5.6
		h-17.5c0,0.4,0.1,1.1,0.2,2c0,0.7,0,1.3,0,1.6c0.9,10.6,2.5,18.3,4.7,23.3c1.2,2.4,2.6,3.6,4.3,3.6c1,0,1.8-0.9,2.2-2.7
		c0.6-1.9,1.2-4.7,1.8-8.3c2.1,1.2,3.7,2,4.9,2.5c-0.6,4.2-1.3,7.2-2,9c-1.2,4-3.7,6-7.4,5.8c-4,0-7.3-3-9.8-9
		c-2.2-5.2-3.7-13.2-4.5-23.9l-0.4-3.8H273.7z M319.4,129.3c-1.5-1.9-3.7-4.3-6.7-6.9l4.3-2.9c2.7,2.4,5,4.6,6.9,6.5L319.4,129.3z"
		/>
	<path class="st0" d="M325.4,218.8c-11.5-3.1-19.7-7.6-24.6-13.4c-6,5.8-14.2,10.4-24.8,13.9c-1.2-2.4-2-4.2-2.5-5.4
		c11.5-3.4,19.9-8.2,25.3-14.3l6.7,0.7l-1.3,1.6c5.5,5.4,13.4,9.2,23.7,11.4c-0.4,0.9-1.1,2.4-2,4.5
		C325.7,218.1,325.6,218.5,325.4,218.8z M308.6,202.5V198h-16.1v4.5h-6V198h-12.3v-5.1h12.3v-5.4h6v5.4h16.1v-5.4h6v5.4h12.1v5.1
		h-12.1v4.5H308.6z M278,239c-0.3-0.4-0.9-1.2-1.8-2.2c-0.7-1-1.3-1.8-1.8-2.2c4.6-2.1,9.5-5.1,14.5-9.2l3.8,3.8
		C287.2,233.3,282.3,236.6,278,239z M280.7,223.1v-4.9h17.2V211h6v7.2h16.6v4.9h-16.6v17.7h-6v-17.7H280.7z M323.4,238.3
		c-4.9-3.1-10-6.1-15.2-9l3.4-4.3c4.5,2.4,9.6,5.4,15.4,9L323.4,238.3z"/>
	<path class="st0" d="M275.5,273.5c-0.1-0.1-0.4-0.5-0.9-1.1c-0.6-1-1.1-1.8-1.6-2.2c3.1-2.7,5.6-5.7,7.4-9l4.3,0.9
		c-0.4,0.9-1,1.8-1.6,2.7h4v-8.5h4.7v2.5h9v3.4h-9v2.7h7.2v4.3c-5.4,5.5-13.1,9.8-23,13c-0.1-0.4-0.5-1.2-1.1-2.2
		c-0.4-0.9-0.8-1.6-1.1-2c3.3-0.9,6.3-1.8,9-2.7c-0.4-0.4-1-1-1.8-1.8c-0.7-0.6-1.3-1-1.6-1.3l3.1-2.5l4.3,3.6
		c2.4-1.3,4.6-2.8,6.7-4.5h-13C279.1,270.2,277.5,271.8,275.5,273.5z M323.9,278.6c-1-0.6-2.5-1.4-4.5-2.5c-2.4-1.5-4.3-2.6-5.6-3.4
		c-1.2,0.6-3.2,1.5-6,2.7c2.1-0.7,1.8-0.6-0.9,0.4c5.7,4,12.8,6.9,21.3,8.7c-0.9,1.3-1.7,2.9-2.5,4.7c-0.3-0.1-0.8-0.4-1.6-0.7
		c-2.1-0.6-4.3-1.4-6.7-2.5v13.2c0.6-0.1,1.3-0.6,2.2-1.3c0.4-0.1,0.7-0.3,0.9-0.4l2.9,3.4c-2.1,1-4.5,2.1-7.2,3.1
		c1.3,0.3,3.3,0.8,5.8,1.6c1.3,0.4,2.3,0.7,2.9,0.9l-2.5,3.8c-9.1-2.8-16.9-5.1-23.3-6.9c-0.2,1.3-0.2,2.6-0.2,3.8
		c-1.9,0.3-4.9,0.8-9,1.6c-4.8,0.7-8.1,1.3-9.8,1.6l-1.1-4.3c1.2-0.2,2.5-0.4,3.8-0.7v-18.1c-2.4,1-4.8,2-7.2,2.9
		c-0.1-0.3-0.4-0.7-0.7-1.1c-0.9-1.5-1.6-2.6-2-3.4c11.3-3.4,19.9-8,25.7-13.6l4,0.4c0.3-0.1,0.7-0.3,1.1-0.4c1.6-0.6,3.4-1.3,5.1-2
		c-1.9-1-4.1-2.2-6.5-3.6l2.9-3.1l8.3,4.3c2.2-1.3,4.1-3,5.6-4.9h-15.9v-4h21.3v4.5c-1.9,2.7-4.1,5-6.5,6.9l8.5,4.5L323.9,278.6z
		 M292.1,282.6c-1.3,0.9-2.7,1.6-4,2.2h26.2c-0.4-0.3-1.2-0.7-2.2-1.1c-1-0.6-1.9-1-2.5-1.1H292.1z M312.2,288.2h-24.2v2.7h24.2
		V288.2z M288.1,296.5h24.2v-2.9h-24.2V296.5z M310.9,303c2.2-1.2,4.3-2.3,6.3-3.4h-29.1v4.9l9.6-1.3c-0.4,0-1-0.1-1.6-0.2l1.8-3.1
		c0.9,0.2,2.2,0.4,3.8,0.9C305.7,301.7,308.8,302.4,310.9,303z M300.6,276.4c-1.3,1.3-2.7,2.5-4,3.4h8.5
		C303.7,278.8,302.2,277.7,300.6,276.4z"/>
	<path class="st0" d="M277.3,378.7c-1.2-1.2-2.6-2.5-4.3-3.8c1.8-3.6,3-7.1,3.6-10.5c0.6-3.3,0.9-8.3,0.9-15v-19.7h23V325h6v4.7
		h20.6v4.5h-44.8v15c0,7.5-0.4,13.1-1.1,17C280.7,370.2,279.4,374.3,277.3,378.7z M283.4,376l-0.4-3.6l4.5-0.2v-2.7h-2.9v-2.9h2.9
		v-2.9H284v-2.9h10.3v2.9h-2.9v2.9h2.7v2.9h-2.7v2.5h3.4c0,1,0,2.2,0,3.4c-1.8,0.1-4.3,0.3-7.6,0.4C285.5,375.9,284.3,376,283.4,376
		z M284,340.4v-3.6h17.5v3.6h-1.6v38h-4v-20.8c-3.3,0.4-7.2,0.8-11.9,1.1l-0.7-3.6l2.9-0.2v-14.5H284z M290.3,340.4v3.1h5.6v-3.1
		H290.3z M290.3,346.2v2.9h5.6v-2.9H290.3z M290.3,354.7c2.1-0.3,4-0.5,5.6-0.7v-2.2h-5.6V354.7z M303.7,375.8l-3.6-1.3
		c1-2.4,2.1-5,3.1-7.8l3.4,0.9c-0.3,1.2-0.8,2.7-1.6,4.5C304.5,373.6,304,374.9,303.7,375.8z M301.7,363.7v-3.8h25.7v3.8h-11.6
		c1,1.6,2,3.4,2.9,5.1l-3.6,1.3c-1.3-2.7-2.4-4.6-3.1-5.8l1.8-0.7H301.7z M312.2,335.5h4.9v3.1h9.8v3.6h-9.8v3.1h9v11.9h-22.8v-11.9
		h9v-3.1h-9.6v-3.6h9.6V335.5z M307.1,348.9v4.9h2.9v-4.9H307.1z M324.8,374.9c-0.2-0.3-0.4-0.7-0.7-1.3c-0.2-0.4-0.7-1.4-1.6-2.9
		c-0.2,0.4-0.3,1.1-0.4,2c-0.3,0.7-0.4,1.3-0.4,1.6c-0.4,2.4-2.1,3.5-4.9,3.4h-4.5c-3.1,0-4.7-1.6-4.7-4.7v-6.7h4v5.8
		c-0.2,1.3,0.6,1.9,2.2,1.8h2c1.5,0.1,2.3-0.4,2.5-1.8c0.3-0.7,0.5-1.7,0.7-2.9c1.2,0.4,2.4,0.8,3.6,1.1l-1.3-2.9l3.4-1.3
		c0.3,0.7,0.8,1.9,1.6,3.4c1,1.8,1.7,3.1,2,4L324.8,374.9z M313.1,348.9v4.9h2.9v-4.9H313.1z M322.3,348.9h-3.1v4.9h3.1V348.9z"/>
</g>
</svg>
