<svg xmlns="http://www.w3.org/2000/svg" viewBox="0 0 25.2 119.27"><defs><style>.cls-1{fill:#261fb2;}</style></defs><title>Asset 1</title><g id="Layer_2" data-name="Layer 2"><g id="Layer_1-2" data-name="Layer 1"><path class="cls-1" d="M3.39,12.55Q2,10.6.1,8.33L2.37,7.1Q4.11,8.95,5.76,11Zm2.88,4.94a5.3,5.3,0,0,0-.41-1,7.06,7.06,0,0,0-.51-1L3.29,24.38.62,23.66A83.49,83.49,0,0,0,2.88,14.4L4,14.71l1.13.41V15A16.62,16.62,0,0,0,10.7,9.87H6.07V7.71h4.22V4.83H7.1V2.67h3.19V0h2.57V2.67h4.63V0h2.57V2.67h3.7V4.83h-3.7V7.71h4.63V9.87h-5A12.88,12.88,0,0,0,25.1,14.5l-1.24,2.37A19,19,0,0,1,20.06,14v5.14H11.11v1.13q-.1,1.54,1.65,1.44h6.38c1.24.07,1.92-.34,2.06-1.23q.1-.41.31-1.54A6.26,6.26,0,0,1,21.7,18a14.77,14.77,0,0,0,2.26.82,15.16,15.16,0,0,1-.62,2.78Q22.73,24,19.64,24H11.83q-3.09-.1-3.19-3V15.63Q7.51,16.56,6.27,17.49ZM4.11,5.76q-.72-1-2.26-2.88l-1-1.34L3.19.31,6.48,4.22Zm7,8.84v2.57h6.48V14.61Zm2.37-4.73a26.92,26.92,0,0,1-2,2.67h7.3a12.87,12.87,0,0,1-1.65-2.37A1.27,1.27,0,0,0,17,9.87Zm-.62-5V7.71h4.63V4.83Z"/><path class="cls-1" d="M1.13,45.07V42.6H12.75v2.47H8.33v6.07q2.78-.31,5.45-.72v2.67Q4.94,53.81.72,54.53L.21,52l5.35-.51V45.07Zm-.82-6V36.53H13.89q-.21-2.57-.21-5h2.78q0,.82.1,2.47v2.57h8.23v2.57h-8a6.09,6.09,0,0,0,.1.93v.72q.62,7.3,2.16,10.7.82,1.65,2,1.65c.48,0,.82-.41,1-1.23a31.51,31.51,0,0,0,.82-3.81,16.69,16.69,0,0,0,2.26,1.13,18.65,18.65,0,0,1-.93,4.11q-.82,2.78-3.39,2.67Q18,56,16.25,51.86q-1.54-3.6-2.06-11L14,39.11Zm21-2.67a25.61,25.61,0,0,0-3.09-3.19l2-1.34q1.85,1.65,3.19,3Z"/><path class="cls-1" d="M16.46,76.36l3.19-8.95H15.12L15,71.63q.21,11-4.73,16.25-.82-.93-2-2.26a2.14,2.14,0,0,1,.41-.51A7.65,7.65,0,0,0,10,83.35L8.54,84.79Q7.3,83.66,6.38,82.74a25.17,25.17,0,0,1-4.73,4.73,1.22,1.22,0,0,1-.21-.31Q.51,86,0,85.51A20,20,0,0,0,4.53,81L2.67,79.24l-.51,1.44L.1,79.45q1.23-3.91,2.37-8.95H.21V68H3q.41-2.47.72-4.94l2.67.21Q6.07,65.46,5.45,68H9.67v1.75q-.62,7.41-2.16,10.7.82.62,2.06,1.75.51.41.72.62,2.06-3.29,2.06-11.31.1-2,.1-4.11H10.18V64.84H22.42v2.67l-1.75,5.14h3.6q-.1,2.16,0,1.44-.21,6.27-.31,8.43,0,4.73-4.11,4.52-1.44.1-4,.1-.21-1.24-.52-2.57,1.13.1,3.5.1,2.57.1,2.47-2.67a67.77,67.77,0,0,0,.31-6.89H19.75l-.41,1.23ZM7.2,70.5H5q-.41,2.06-1.44,5.76a7.51,7.51,0,0,1-.21.82q1.13.82,2.26,1.75A27.16,27.16,0,0,0,7.2,70.5Z"/><path class="cls-1" d="M24.07,109.19Q16.15,107,12.75,103A28.79,28.79,0,0,1,1.34,109.4q-.82-1.64-1.13-2.47,7.92-2.37,11.62-6.58l3.08.31-.62.72q3.8,3.7,10.9,5.25-.31.62-.93,2.06A4.11,4.11,0,0,1,24.07,109.19Zm-7.71-7.51V99.62H8.95v2.06H6.17V99.62H.51V97.26H6.17V94.79H8.95v2.47h7.41V94.79h2.78v2.47h5.55v2.37H19.13v2.06ZM2.26,118.45a13,13,0,0,0-.82-1,8.72,8.72,0,0,0-.82-1,32.37,32.37,0,0,0,6.69-4.22l1.75,1.75A58,58,0,0,1,2.26,118.45Zm1.23-7.3v-2.26h7.92v-3.29h2.78v3.29h7.61v2.26H14.19v8.13H11.42v-8.13Zm19.64,7q-3.39-2.16-7-4.11l1.54-2q3.08,1.65,7.1,4.11Z"/></g></g></svg>