<?xml version="1.0" encoding="utf-8"?>
<!-- Generator: Adobe Illustrator 20.1.0, SVG Export Plug-In . SVG Version: 6.00 Build 0)  -->
<svg version="1.1" id="Layer_1" xmlns="http://www.w3.org/2000/svg" xmlns:xlink="http://www.w3.org/1999/xlink" x="0px" y="0px"
	 viewBox="0 0 21.6 72.8" style="enable-background:new 0 0 21.6 72.8;" xml:space="preserve">
<style type="text/css">
	.st0{fill:#261FB2;}
</style>
<g>
	<path class="st0" d="M4.2,12.8c-1.2-0.9-2.3-1.6-3.4-2.3l1.1-1.6c1.3,0.7,2.4,1.4,3.5,2.1L4.2,12.8z M1,3.7l0-2l5.7,0l0-1.7L9,0
		l0,1.7l4.9,0l0-1.7l2.2,0l0,1.7l5.5,0l0,2l-5.5,0l0,1.2l-2.2,0l0-1.2L9,3.7l0,1.4l-2.3,0l0-1.4L1,3.7z M3.3,20.4l-2.1-0.8
		c0.5-1.3,1.2-3.3,2.2-6.1c0.1,0,0.1,0,0.2,0.1c0.8,0.3,1.4,0.6,1.9,0.7c-0.2,0.5-0.4,1.1-0.7,2.1C4.1,18,3.6,19.4,3.3,20.4z
		 M5.4,8.8C4.3,8,3.1,7.2,1.9,6.6l1.2-1.7c0.4,0.2,1,0.6,1.8,1c0.7,0.5,1.3,0.8,1.7,1L5.4,8.8z M9.4,20.7c-0.1-0.1-0.1-0.3-0.3-0.4
		c-0.1-0.3-0.4-0.9-0.9-1.6c1.9-0.4,3.6-1,5-1.6c-1.3-1.1-2.3-2.4-3-4.1l0.9-0.4l-1.7,0c0,3.2-0.9,5.8-2.7,8
		c-0.2-0.1-0.5-0.3-0.9-0.5c-0.4-0.3-0.7-0.5-0.9-0.6c1.7-1.9,2.5-4.5,2.4-8l0-5l6.1,0l0-1.5l2.1,0l0,1.5l5.5,0l-0.4,3.5
		c-0.5-0.1-1.1-0.1-2-0.1l0.3-1.6l-3.4,0l0,2.5l4.3,0l0,1.9c-0.8,1.7-1.8,3.1-3,4.3c1.3,0.6,2.8,1.1,4.7,1.3c-0.4,0.8-0.8,1.5-1,2.1
		c-2.2-0.5-4.1-1.3-5.5-2.2C13.5,19.2,11.6,20,9.4,20.7z M9.5,8.3l0,2.5l3.9,0l0-2.5L9.5,8.3z M17.5,12.7l-5.2,0
		c0.7,1.3,1.6,2.4,2.7,3.3C16.1,15,16.9,13.9,17.5,12.7z"/>
	<path class="st0" d="M13.8,30.6l0-1.2l-5.1,0l0,1.2l11.7,0.1l0,4L4.8,34.6L6,35.2c-0.6,0.6-1.3,1.3-2,1.9l1.2,1.2
		c0.9-1,1.7-1.9,2.5-2.7l1.5,0.9l-4.4,4.3l2.3,0l-0.6-1.2l1.3-0.6c0.3,0.6,0.9,1.5,1.5,2.7c0.2,0.3,0.3,0.5,0.3,0.7l-1.5,0.5
		c0.5,0.8,0.8,1.6,1,2.3L8,45.6c-0.2-0.8-0.5-1.6-0.8-2.4l1.2-0.4L8,42c-0.5,0-1,0-1.4,0l0,5.2l-2,0l0-5.2l-2.9,0.1l-0.3-1.5
		c0.5,0,0.9,0,1.4,0l1.4-1.4c-1-1.1-1.9-2.1-2.9-2.9l1.1-0.9l0.8,0.6c0.5-0.5,1-1,1.3-1.5l-2.2,0l0-4l4.3,0l0-1.2l-5.2,0l0-1.6
		l5.2,0l0-1.2l2.2,0l0,1.2l5.1,0l0-1.2l2.2,0l0,1.2l5.3,0l0,1.6l-5.3,0l0,1.2L13.8,30.6z M2.7,46.2l-1.5-0.4c0-0.1,0.1-0.2,0.2-0.4
		c0.3-1.1,0.6-1.9,0.8-2.6l1.5,0.3C3.4,44.2,3.1,45.3,2.7,46.2z M4.3,31.9l0,1.4l3.3,0l0-1.4L4.3,31.9z M9.7,40.8
		c-0.3-0.5-0.7-1-1.2-1.6c1.3-1.2,2.3-2.6,3-4.2l2,0.3c-0.2,0.5-0.5,1-0.8,1.4l2.5,0l0.5-1.5l1.9,0.1l-0.4,1.5l3.8,0l0,1.4l-3.6,0
		l0,1.4l3.4,0l0,1.4l-3.4,0l0,1.4l3.4,0l0,1.4l-3.4,0l0,1.2l3.9,0l0,1.5l-8.9,0l0,0.9l-2,0l0-7c-0.1,0.1-0.1,0.2-0.3,0.3
		C9.9,40.5,9.8,40.7,9.7,40.8z M9.7,31.9l0,1.4l3.2,0l0-1.4L9.7,31.9z M12.3,38l0,1.4l3.1,0l0-1.4L12.3,38z M12.3,40.8l0,1.4l3.1,0
		l0-1.4L12.3,40.8z M12.3,43.5l0,1.2l3.1,0l0-1.2L12.3,43.5z M18.2,32l-3.2,0l0,1.4l3.2,0L18.2,32z"/>
	<path class="st0" d="M6.3,72.7c-2.6,0-3.8-1.1-3.7-3.5l0-8.7C2.5,60.8,2.3,61,2,61.4c-0.5,0.5-0.8,0.9-1.1,1.1
		c-0.2-0.9-0.5-1.7-0.8-2.4c2.2-2.1,3.9-4.5,5.1-7.3l2.6,0.3c-0.1,0.2-0.2,0.4-0.3,0.7c-0.1,0.2-0.3,0.6-0.6,1.2L18.6,55
		c0,3.4-0.1,6.7-0.3,9.9c0,2.5-1.1,3.7-3.4,3.6c-0.8,0.1-1.8,0.1-3,0.1c-0.1-0.2-0.1-0.4-0.3-0.8c-0.1-0.6-0.2-1.1-0.3-1.5l-6.4,0
		l0,2.7c-0.1,1.3,0.6,1.9,2.1,1.8l9.1,0c1.3,0.1,2-0.4,2.2-1.4c0.2-0.7,0.3-1.6,0.4-2.7c0.3,0.1,0.7,0.2,1.2,0.3
		c0.5,0.2,0.9,0.3,1.1,0.3c-0.1,1-0.3,2.1-0.5,3.1c-0.4,1.5-1.6,2.2-3.8,2.1L6.3,72.7z M5.4,57.1c-0.5,0.7-1,1.5-1.7,2.3l9,0l0,6.9
		l1.5,0c1.1,0.1,1.7-0.5,1.8-1.7c0.1-2.3,0.2-4.8,0.2-7.5L5.4,57.1z M4.9,61.4l0,2.9l5.6,0l0-2.9L4.9,61.4z"/>
</g>
</svg>
